# Vorlage Fahrzeug Bicycle - 1 Einheit = 1 Stud, oben +Y, vorne -Z (Roblox), Boden y = 0.
# Ref_Chassis = Rumpf im Spiel (kollidiert, wird getroffen). Wheel_* = Räder an der Achse, Seat_* = Sitzflächen.
# Ref_* nur als Maßstab: vor dem Export löschen. Spezifikation: docs/3d-richtlinien.md
mtllib Bicycle.mtl
o Ref_Chassis
v -0.700000 1.400000 -2.800000
v -0.700000 1.400000 2.800000
v -0.700000 3.000000 -2.800000
v -0.700000 3.000000 2.800000
v 0.700000 1.400000 -2.800000
v 0.700000 1.400000 2.800000
v 0.700000 3.000000 -2.800000
v 0.700000 3.000000 2.800000
usemtl c_e67828_30
f 1 2 4 3
f 5 7 8 6
f 1 5 6 2
f 3 4 8 7
f 1 3 7 5
f 2 6 8 4
o Ref_Frame
v -0.150000 2.650000 -1.680000
v -0.150000 2.650000 1.680000
v -0.150000 2.950000 -1.680000
v -0.150000 2.950000 1.680000
v 0.150000 2.650000 -1.680000
v 0.150000 2.650000 1.680000
v 0.150000 2.950000 -1.680000
v 0.150000 2.950000 1.680000
usemtl c_468cc8_100
f 9 10 12 11
f 13 15 16 14
f 9 13 14 10
f 11 12 16 15
f 9 11 15 13
f 10 14 16 12
o Ref_FrameDown
v -0.150000 1.738346 -1.706041
v -0.150000 1.611561 -1.434148
v -0.150000 3.188439 -1.029852
v -0.150000 3.061654 -0.757959
v 0.150000 1.738346 -1.706041
v 0.150000 1.611561 -1.434148
v 0.150000 3.188439 -1.029852
v 0.150000 3.061654 -0.757959
usemtl c_468cc8_100
f 17 18 20 19
f 21 23 24 22
f 17 21 22 18
f 19 20 24 23
f 17 19 23 21
f 18 22 24 20
o Ref_Handlebar
v -0.800000 3.700000 -1.780000
v -0.800000 3.700000 -1.580000
v -0.800000 3.900000 -1.780000
v -0.800000 3.900000 -1.580000
v 0.800000 3.700000 -1.780000
v 0.800000 3.700000 -1.580000
v 0.800000 3.900000 -1.780000
v 0.800000 3.900000 -1.580000
usemtl c_1e1e20_100
f 25 26 28 27
f 29 31 32 30
f 25 29 30 26
f 27 28 32 31
f 25 27 31 29
f 26 30 32 28
o Wheel_F
v -0.125000 2.800000 -2.200000
v -0.125000 2.701043 -1.702512
v -0.125000 2.419239 -1.280761
v -0.125000 1.997488 -0.998957
v -0.125000 1.500000 -0.900000
v -0.125000 1.002512 -0.998957
v -0.125000 0.580761 -1.280761
v -0.125000 0.298957 -1.702512
v -0.125000 0.200000 -2.200000
v -0.125000 0.298957 -2.697488
v -0.125000 0.580761 -3.119239
v -0.125000 1.002512 -3.401043
v -0.125000 1.500000 -3.500000
v -0.125000 1.997488 -3.401043
v -0.125000 2.419239 -3.119239
v -0.125000 2.701043 -2.697488
v 0.125000 2.800000 -2.200000
v 0.125000 2.701043 -1.702512
v 0.125000 2.419239 -1.280761
v 0.125000 1.997488 -0.998957
v 0.125000 1.500000 -0.900000
v 0.125000 1.002512 -0.998957
v 0.125000 0.580761 -1.280761
v 0.125000 0.298957 -1.702512
v 0.125000 0.200000 -2.200000
v 0.125000 0.298957 -2.697488
v 0.125000 0.580761 -3.119239
v 0.125000 1.002512 -3.401043
v 0.125000 1.500000 -3.500000
v 0.125000 1.997488 -3.401043
v 0.125000 2.419239 -3.119239
v 0.125000 2.701043 -2.697488
usemtl c_28282c_100
f 33 34 50 49
f 34 35 51 50
f 35 36 52 51
f 36 37 53 52
f 37 38 54 53
f 38 39 55 54
f 39 40 56 55
f 40 41 57 56
f 41 42 58 57
f 42 43 59 58
f 43 44 60 59
f 44 45 61 60
f 45 46 62 61
f 46 47 63 62
f 47 48 64 63
f 48 33 49 64
f 48 47 46 45 44 43 42 41 40 39 38 37 36 35 34 33
f 49 50 51 52 53 54 55 56 57 58 59 60 61 62 63 64
o Wheel_R
v -0.125000 2.800000 2.200000
v -0.125000 2.701043 2.697488
v -0.125000 2.419239 3.119239
v -0.125000 1.997488 3.401043
v -0.125000 1.500000 3.500000
v -0.125000 1.002512 3.401043
v -0.125000 0.580761 3.119239
v -0.125000 0.298957 2.697488
v -0.125000 0.200000 2.200000
v -0.125000 0.298957 1.702512
v -0.125000 0.580761 1.280761
v -0.125000 1.002512 0.998957
v -0.125000 1.500000 0.900000
v -0.125000 1.997488 0.998957
v -0.125000 2.419239 1.280761
v -0.125000 2.701043 1.702512
v 0.125000 2.800000 2.200000
v 0.125000 2.701043 2.697488
v 0.125000 2.419239 3.119239
v 0.125000 1.997488 3.401043
v 0.125000 1.500000 3.500000
v 0.125000 1.002512 3.401043
v 0.125000 0.580761 3.119239
v 0.125000 0.298957 2.697488
v 0.125000 0.200000 2.200000
v 0.125000 0.298957 1.702512
v 0.125000 0.580761 1.280761
v 0.125000 1.002512 0.998957
v 0.125000 1.500000 0.900000
v 0.125000 1.997488 0.998957
v 0.125000 2.419239 1.280761
v 0.125000 2.701043 1.702512
usemtl c_28282c_100
f 65 66 82 81
f 66 67 83 82
f 67 68 84 83
f 68 69 85 84
f 69 70 86 85
f 70 71 87 86
f 71 72 88 87
f 72 73 89 88
f 73 74 90 89
f 74 75 91 90
f 75 76 92 91
f 76 77 93 92
f 77 78 94 93
f 78 79 95 94
f 79 80 96 95
f 80 65 81 96
f 80 79 78 77 76 75 74 73 72 71 70 69 68 67 66 65
f 81 82 83 84 85 86 87 88 89 90 91 92 93 94 95 96
o Seat_Driver
v -0.060000 3.240000 0.612000
v -0.060000 3.240000 0.732000
v -0.060000 3.360000 0.612000
v -0.060000 3.360000 0.732000
v 0.060000 3.240000 0.612000
v 0.060000 3.240000 0.732000
v 0.060000 3.360000 0.612000
v 0.060000 3.360000 0.732000
usemtl c_ff00ff_100
f 97 98 100 99
f 101 103 104 102
f 97 101 102 98
f 99 100 104 103
f 97 99 103 101
f 98 102 104 100
o Ref_Ground
v -2.200000 -0.050000 -4.300000
v -2.200000 -0.050000 4.300000
v -2.200000 0.000000 -4.300000
v -2.200000 0.000000 4.300000
v 2.200000 -0.050000 -4.300000
v 2.200000 -0.050000 4.300000
v 2.200000 0.000000 -4.300000
v 2.200000 0.000000 4.300000
usemtl c_46484c_100
f 105 106 108 107
f 109 111 112 110
f 105 109 110 106
f 107 108 112 111
f 105 107 111 109
f 106 110 112 108
