# Vorlage Fahrzeug Heli - 1 Einheit = 1 Stud, oben +Y, vorne -Z (Roblox), Boden y = 0.
# Ref_Chassis = Rumpf im Spiel (kollidiert, wird getroffen). Point_Rotor / Point_TailRotor = Drehpunkte der Rotoren (um +Y bzw. +X), Seat_* = Sitzflächen.
# Ref_* nur als Maßstab: vor dem Export löschen. Spezifikation: docs/3d-richtlinien.md
mtllib Heli.mtl
o Ref_Chassis
v -3.200000 1.400000 -6.000000
v -3.200000 1.400000 6.000000
v -3.200000 3.400000 -6.000000
v -3.200000 3.400000 6.000000
v 3.200000 1.400000 -6.000000
v 3.200000 1.400000 6.000000
v 3.200000 3.400000 -6.000000
v 3.200000 3.400000 6.000000
usemtl c_e67828_30
f 1 2 4 3
f 5 7 8 6
f 1 5 6 2
f 3 4 8 7
f 1 3 7 5
f 2 6 8 4
o Ref_Body
v -3.200000 1.400000 -4.800000
v -3.200000 1.400000 6.000000
v -3.200000 3.400000 -4.800000
v -3.200000 3.400000 6.000000
v 3.200000 1.400000 -4.800000
v 3.200000 1.400000 6.000000
v 3.200000 3.400000 -4.800000
v 3.200000 3.400000 6.000000
usemtl c_404c3a_100
f 9 10 12 11
f 13 15 16 14
f 9 13 14 10
f 11 12 16 15
f 9 11 15 13
f 10 14 16 12
o Ref_Nose
v -3.000000 3.800000 -5.600000
v -3.000000 3.708655 -5.140780
v -3.000000 3.448528 -4.751472
v -3.000000 3.059220 -4.491345
v -3.000000 2.600000 -4.400000
v -3.000000 2.140780 -4.491345
v -3.000000 1.751472 -4.751472
v -3.000000 1.491345 -5.140780
v -3.000000 1.400000 -5.600000
v -3.000000 1.491345 -6.059220
v -3.000000 1.751472 -6.448528
v -3.000000 2.140780 -6.708655
v -3.000000 2.600000 -6.800000
v -3.000000 3.059220 -6.708655
v -3.000000 3.448528 -6.448528
v -3.000000 3.708655 -6.059220
v 3.000000 3.800000 -5.600000
v 3.000000 3.708655 -5.140780
v 3.000000 3.448528 -4.751472
v 3.000000 3.059220 -4.491345
v 3.000000 2.600000 -4.400000
v 3.000000 2.140780 -4.491345
v 3.000000 1.751472 -4.751472
v 3.000000 1.491345 -5.140780
v 3.000000 1.400000 -5.600000
v 3.000000 1.491345 -6.059220
v 3.000000 1.751472 -6.448528
v 3.000000 2.140780 -6.708655
v 3.000000 2.600000 -6.800000
v 3.000000 3.059220 -6.708655
v 3.000000 3.448528 -6.448528
v 3.000000 3.708655 -6.059220
usemtl c_404c3a_100
f 17 18 34 33
f 18 19 35 34
f 19 20 36 35
f 20 21 37 36
f 21 22 38 37
f 22 23 39 38
f 23 24 40 39
f 24 25 41 40
f 25 26 42 41
f 26 27 43 42
f 27 28 44 43
f 28 29 45 44
f 29 30 46 45
f 30 31 47 46
f 31 32 48 47
f 32 17 33 48
f 32 31 30 29 28 27 26 25 24 23 22 21 20 19 18 17
f 33 34 35 36 37 38 39 40 41 42 43 44 45 46 47 48
o Ref_Stripe
v -3.220000 2.575000 -3.600000
v -3.220000 2.575000 5.400000
v -3.220000 2.925000 -3.600000
v -3.220000 2.925000 5.400000
v 3.220000 2.575000 -3.600000
v 3.220000 2.575000 5.400000
v 3.220000 2.925000 -3.600000
v 3.220000 2.925000 5.400000
usemtl c_b1ad81_100
f 49 50 52 51
f 53 55 56 54
f 49 53 54 50
f 51 52 56 55
f 49 51 55 53
f 50 54 56 52
o Ref_Windshield
v -2.900000 3.757630 -5.780154
v -2.900000 3.644924 -5.614935
v -2.900000 7.855076 -2.985065
v -2.900000 7.742370 -2.819846
v 2.900000 3.757630 -5.780154
v 2.900000 3.644924 -5.614935
v 2.900000 7.855076 -2.985065
v 2.900000 7.742370 -2.819846
usemtl c_96b4c8_50
f 57 58 60 59
f 61 63 64 62
f 57 61 62 58
f 59 60 64 63
f 57 59 63 61
f 58 62 64 60
o Ref_WindowFrame
v -3.200000 3.785806 -5.821459
v -3.200000 3.616748 -5.573630
v -3.200000 7.883252 -3.026370
v -3.200000 7.714194 -2.778541
v -2.900000 3.785806 -5.821459
v -2.900000 3.616748 -5.573630
v -2.900000 7.883252 -3.026370
v -2.900000 7.714194 -2.778541
usemtl c_232a20_100
f 65 66 68 67
f 69 71 72 70
f 65 69 70 66
f 67 68 72 71
f 65 67 71 69
f 66 70 72 68
o Ref_DoorPost
v -3.200000 3.400000 -0.450000
v -3.200000 3.400000 -0.150000
v -3.200000 7.800000 -0.450000
v -3.200000 7.800000 -0.150000
v -2.900000 3.400000 -0.450000
v -2.900000 3.400000 -0.150000
v -2.900000 7.800000 -0.450000
v -2.900000 7.800000 -0.150000
usemtl c_232a20_100
f 73 74 76 75
f 77 79 80 78
f 73 77 78 74
f 75 76 80 79
f 73 75 79 77
f 74 78 80 76
o Ref_WindowFrame
v 2.900000 3.785806 -5.821459
v 2.900000 3.616748 -5.573630
v 2.900000 7.883252 -3.026370
v 2.900000 7.714194 -2.778541
v 3.200000 3.785806 -5.821459
v 3.200000 3.616748 -5.573630
v 3.200000 7.883252 -3.026370
v 3.200000 7.714194 -2.778541
usemtl c_232a20_100
f 81 82 84 83
f 85 87 88 86
f 81 85 86 82
f 83 84 88 87
f 81 83 87 85
f 82 86 88 84
o Ref_DoorPost
v 2.900000 3.400000 -0.450000
v 2.900000 3.400000 -0.150000
v 2.900000 7.800000 -0.450000
v 2.900000 7.800000 -0.150000
v 3.200000 3.400000 -0.450000
v 3.200000 3.400000 -0.150000
v 3.200000 7.800000 -0.450000
v 3.200000 7.800000 -0.150000
usemtl c_232a20_100
f 89 90 92 91
f 93 95 96 94
f 89 93 94 90
f 91 92 96 95
f 89 91 95 93
f 90 94 96 92
o Ref_Dash
v -2.700000 3.800000 -5.200000
v -2.700000 3.800000 -4.500000
v -2.700000 4.300000 -5.200000
v -2.700000 4.300000 -4.500000
v 2.700000 3.800000 -5.200000
v 2.700000 3.800000 -4.500000
v 2.700000 4.300000 -5.200000
v 2.700000 4.300000 -4.500000
usemtl c_222224_100
f 97 98 100 99
f 101 103 104 102
f 97 101 102 98
f 99 100 104 103
f 97 99 103 101
f 98 102 104 100
o Ref_Roof
v -3.100000 7.800000 -3.050000
v -3.100000 7.800000 3.550000
v -3.100000 8.200000 -3.050000
v -3.100000 8.200000 3.550000
v 3.100000 7.800000 -3.050000
v 3.100000 7.800000 3.550000
v 3.100000 8.200000 -3.050000
v 3.100000 8.200000 3.550000
usemtl c_404c3a_100
f 105 106 108 107
f 109 111 112 110
f 105 109 110 106
f 107 108 112 111
f 105 107 111 109
f 106 110 112 108
o Ref_BackWall
v -3.100000 3.400000 3.300000
v -3.100000 3.400000 3.600000
v -3.100000 7.800000 3.300000
v -3.100000 7.800000 3.600000
v 3.100000 3.400000 3.300000
v 3.100000 3.400000 3.600000
v 3.100000 7.800000 3.300000
v 3.100000 7.800000 3.600000
usemtl c_404c3a_100
f 113 114 116 115
f 117 119 120 118
f 113 117 118 114
f 115 116 120 119
f 113 115 119 117
f 114 118 120 116
o Ref_Engine
v -1.800000 8.200000 -1.600000
v -1.800000 8.200000 3.600000
v -1.800000 9.700000 -1.600000
v -1.800000 9.700000 3.600000
v 1.800000 8.200000 -1.600000
v 1.800000 8.200000 3.600000
v 1.800000 9.700000 -1.600000
v 1.800000 9.700000 3.600000
usemtl c_232a20_100
f 121 122 124 123
f 125 127 128 126
f 121 125 126 122
f 123 124 128 127
f 121 123 127 125
f 122 126 128 124
o Ref_Exhaust
v -1.350000 8.950000 3.400000
v -1.350000 8.950000 4.600000
v -1.350000 9.650000 3.400000
v -1.350000 9.650000 4.600000
v -0.650000 8.950000 3.400000
v -0.650000 8.950000 4.600000
v -0.650000 9.650000 3.400000
v -0.650000 9.650000 4.600000
usemtl c_222224_100
f 129 130 132 131
f 133 135 136 134
f 129 133 134 130
f 131 132 136 135
f 129 131 135 133
f 130 134 136 132
o Ref_Exhaust
v 0.650000 8.950000 3.400000
v 0.650000 8.950000 4.600000
v 0.650000 9.650000 3.400000
v 0.650000 9.650000 4.600000
v 1.350000 8.950000 3.400000
v 1.350000 8.950000 4.600000
v 1.350000 9.650000 3.400000
v 1.350000 9.650000 4.600000
usemtl c_222224_100
f 137 138 140 139
f 141 143 144 142
f 137 141 142 138
f 139 140 144 143
f 137 139 143 141
f 138 142 144 140
o Ref_Mast
v -0.300000 9.700000 -0.500000
v -0.300000 9.700000 0.100000
v -0.300000 10.700000 -0.500000
v -0.300000 10.700000 0.100000
v 0.300000 9.700000 -0.500000
v 0.300000 9.700000 0.100000
v 0.300000 10.700000 -0.500000
v 0.300000 10.700000 0.100000
usemtl c_222224_100
f 145 146 148 147
f 149 151 152 150
f 145 149 150 146
f 147 148 152 151
f 145 147 151 149
f 146 150 152 148
o Point_Rotor
v -0.100000 10.900000 -0.300000
v -0.100000 10.900000 -0.100000
v -0.100000 11.100000 -0.300000
v -0.100000 11.100000 -0.100000
v 0.100000 10.900000 -0.300000
v 0.100000 10.900000 -0.100000
v 0.100000 11.100000 -0.300000
v 0.100000 11.100000 -0.100000
usemtl c_ff00ff_100
f 153 154 156 155
f 157 159 160 158
f 153 157 158 154
f 155 156 160 159
f 153 155 159 157
f 154 158 160 156
o Ref_RotorHub
v -0.700000 10.700000 -0.900000
v -0.700000 10.700000 0.500000
v -0.700000 11.300000 -0.900000
v -0.700000 11.300000 0.500000
v 0.700000 10.700000 -0.900000
v 0.700000 10.700000 0.500000
v 0.700000 11.300000 -0.900000
v 0.700000 11.300000 0.500000
usemtl c_222224_100
f 161 162 164 163
f 165 167 168 166
f 161 165 166 162
f 163 164 168 167
f 161 163 167 165
f 162 166 168 164
o Ref_RotorBlade
v -0.450000 11.030000 -12.200000
v -0.450000 11.030000 11.800000
v -0.450000 11.170000 -12.200000
v -0.450000 11.170000 11.800000
v 0.450000 11.030000 -12.200000
v 0.450000 11.030000 11.800000
v 0.450000 11.170000 -12.200000
v 0.450000 11.170000 11.800000
usemtl c_222224_100
f 169 170 172 171
f 173 175 176 174
f 169 173 174 170
f 171 172 176 175
f 169 171 175 173
f 170 174 176 172
o Ref_RotorBlade
v -12.000000 11.030000 -0.650000
v -12.000000 11.030000 0.250000
v -12.000000 11.170000 -0.650000
v -12.000000 11.170000 0.250000
v 12.000000 11.030000 -0.650000
v 12.000000 11.030000 0.250000
v 12.000000 11.170000 -0.650000
v 12.000000 11.170000 0.250000
usemtl c_222224_100
f 177 178 180 179
f 181 183 184 182
f 177 181 182 178
f 179 180 184 183
f 177 179 183 181
f 178 182 184 180
o Ref_TailBoom
v -0.650000 5.150000 3.600000
v -0.650000 5.150000 14.600000
v -0.650000 6.450000 3.600000
v -0.650000 6.450000 14.600000
v 0.650000 5.150000 3.600000
v 0.650000 5.150000 14.600000
v 0.650000 6.450000 3.600000
v 0.650000 6.450000 14.600000
usemtl c_404c3a_100
f 185 186 188 187
f 189 191 192 190
f 185 189 190 186
f 187 188 192 191
f 185 187 191 189
f 186 190 192 188
o Ref_TailFin
v -0.150000 5.943136 12.305805
v -0.150000 5.119001 14.345610
v -0.150000 9.280999 13.654390
v -0.150000 8.456864 15.694195
v 0.150000 5.943136 12.305805
v 0.150000 5.119001 14.345610
v 0.150000 9.280999 13.654390
v 0.150000 8.456864 15.694195
usemtl c_404c3a_100
f 193 194 196 195
f 197 199 200 198
f 193 197 198 194
f 195 196 200 199
f 193 195 199 197
f 194 198 200 196
o Ref_Stabilizer
v -2.100000 5.700000 11.350000
v -2.100000 5.700000 12.650000
v -2.100000 5.900000 11.350000
v -2.100000 5.900000 12.650000
v 2.100000 5.700000 11.350000
v 2.100000 5.700000 12.650000
v 2.100000 5.900000 11.350000
v 2.100000 5.900000 12.650000
usemtl c_404c3a_100
f 201 202 204 203
f 205 207 208 206
f 201 205 206 202
f 203 204 208 207
f 201 203 207 205
f 202 206 208 204
o Point_TailRotor
v 0.450000 7.300000 14.100000
v 0.450000 7.300000 14.300000
v 0.450000 7.500000 14.100000
v 0.450000 7.500000 14.300000
v 0.650000 7.300000 14.100000
v 0.650000 7.300000 14.300000
v 0.650000 7.500000 14.100000
v 0.650000 7.500000 14.300000
usemtl c_ff00ff_100
f 209 210 212 211
f 213 215 216 214
f 209 213 214 210
f 211 212 216 215
f 209 211 215 213
f 210 214 216 212
o Ref_TailRotorHub
v 0.350000 7.050000 13.850000
v 0.350000 7.050000 14.550000
v 0.350000 7.750000 13.850000
v 0.350000 7.750000 14.550000
v 0.750000 7.050000 13.850000
v 0.750000 7.050000 14.550000
v 0.750000 7.750000 13.850000
v 0.750000 7.750000 14.550000
usemtl c_222224_100
f 217 218 220 219
f 221 223 224 222
f 217 221 222 218
f 219 220 224 223
f 217 219 223 221
f 218 222 224 220
o Ref_TailRotorBlade
v 0.610000 5.200000 13.975000
v 0.610000 5.200000 14.425000
v 0.610000 9.600000 13.975000
v 0.610000 9.600000 14.425000
v 0.730000 5.200000 13.975000
v 0.730000 5.200000 14.425000
v 0.730000 9.600000 13.975000
v 0.730000 9.600000 14.425000
usemtl c_222224_100
f 225 226 228 227
f 229 231 232 230
f 225 229 230 226
f 227 228 232 231
f 225 227 231 229
f 226 230 232 228
o Ref_TailRotorBlade
v 0.610000 7.175000 12.000000
v 0.610000 7.175000 16.400000
v 0.610000 7.625000 12.000000
v 0.610000 7.625000 16.400000
v 0.730000 7.175000 12.000000
v 0.730000 7.175000 16.400000
v 0.730000 7.625000 12.000000
v 0.730000 7.625000 16.400000
usemtl c_222224_100
f 233 234 236 235
f 237 239 240 238
f 233 237 238 234
f 235 236 240 239
f 233 235 239 237
f 234 238 240 236
o Ref_LandingSkid
v -2.900000 0.000000 -5.400000
v -2.900000 0.000000 5.000000
v -2.900000 0.400000 -5.400000
v -2.900000 0.400000 5.000000
v -2.500000 0.000000 -5.400000
v -2.500000 0.000000 5.000000
v -2.500000 0.400000 -5.400000
v -2.500000 0.400000 5.000000
usemtl c_222224_100
f 241 242 244 243
f 245 247 248 246
f 241 245 246 242
f 243 244 248 247
f 241 243 247 245
f 242 246 248 244
o Ref_SkidTip
v -2.900000 0.687673 -6.538122
v -2.900000 -0.115334 -5.391309
v -2.900000 1.015334 -6.308691
v -2.900000 0.212327 -5.161878
v -2.500000 0.687673 -6.538122
v -2.500000 -0.115334 -5.391309
v -2.500000 1.015334 -6.308691
v -2.500000 0.212327 -5.161878
usemtl c_222224_100
f 249 250 252 251
f 253 255 256 254
f 249 253 254 250
f 251 252 256 255
f 249 251 255 253
f 250 254 256 252
o Ref_SkidStrut
v -2.850000 0.200000 -2.750000
v -2.850000 0.200000 -2.450000
v -2.850000 1.500000 -2.750000
v -2.850000 1.500000 -2.450000
v -2.550000 0.200000 -2.750000
v -2.550000 0.200000 -2.450000
v -2.550000 1.500000 -2.750000
v -2.550000 1.500000 -2.450000
usemtl c_232a20_100
f 257 258 260 259
f 261 263 264 262
f 257 261 262 258
f 259 260 264 263
f 257 259 263 261
f 258 262 264 260
o Ref_SkidStrut
v -2.850000 0.200000 2.250000
v -2.850000 0.200000 2.550000
v -2.850000 1.500000 2.250000
v -2.850000 1.500000 2.550000
v -2.550000 0.200000 2.250000
v -2.550000 0.200000 2.550000
v -2.550000 1.500000 2.250000
v -2.550000 1.500000 2.550000
usemtl c_232a20_100
f 265 266 268 267
f 269 271 272 270
f 265 269 270 266
f 267 268 272 271
f 265 267 271 269
f 266 270 272 268
o Ref_LandingSkid
v 2.500000 0.000000 -5.400000
v 2.500000 0.000000 5.000000
v 2.500000 0.400000 -5.400000
v 2.500000 0.400000 5.000000
v 2.900000 0.000000 -5.400000
v 2.900000 0.000000 5.000000
v 2.900000 0.400000 -5.400000
v 2.900000 0.400000 5.000000
usemtl c_222224_100
f 273 274 276 275
f 277 279 280 278
f 273 277 278 274
f 275 276 280 279
f 273 275 279 277
f 274 278 280 276
o Ref_SkidTip
v 2.500000 0.687673 -6.538122
v 2.500000 -0.115334 -5.391309
v 2.500000 1.015334 -6.308691
v 2.500000 0.212327 -5.161878
v 2.900000 0.687673 -6.538122
v 2.900000 -0.115334 -5.391309
v 2.900000 1.015334 -6.308691
v 2.900000 0.212327 -5.161878
usemtl c_222224_100
f 281 282 284 283
f 285 287 288 286
f 281 285 286 282
f 283 284 288 287
f 281 283 287 285
f 282 286 288 284
o Ref_SkidStrut
v 2.550000 0.200000 -2.750000
v 2.550000 0.200000 -2.450000
v 2.550000 1.500000 -2.750000
v 2.550000 1.500000 -2.450000
v 2.850000 0.200000 -2.750000
v 2.850000 0.200000 -2.450000
v 2.850000 1.500000 -2.750000
v 2.850000 1.500000 -2.450000
usemtl c_232a20_100
f 289 290 292 291
f 293 295 296 294
f 289 293 294 290
f 291 292 296 295
f 289 291 295 293
f 290 294 296 292
o Ref_SkidStrut
v 2.550000 0.200000 2.250000
v 2.550000 0.200000 2.550000
v 2.550000 1.500000 2.250000
v 2.550000 1.500000 2.550000
v 2.850000 0.200000 2.250000
v 2.850000 0.200000 2.550000
v 2.850000 1.500000 2.250000
v 2.850000 1.500000 2.550000
usemtl c_232a20_100
f 297 298 300 299
f 301 303 304 302
f 297 301 302 298
f 299 300 304 303
f 297 299 303 301
f 298 302 304 300
o Ref_NavLight
v -3.425000 3.050000 -2.250000
v -3.425000 3.050000 -1.750000
v -3.425000 3.350000 -2.250000
v -3.425000 3.350000 -1.750000
v -3.175000 3.050000 -2.250000
v -3.175000 3.050000 -1.750000
v -3.175000 3.350000 -2.250000
v -3.175000 3.350000 -1.750000
usemtl c_e62828_100
f 305 306 308 307
f 309 311 312 310
f 305 309 310 306
f 307 308 312 311
f 305 307 311 309
f 306 310 312 308
o Ref_NavLight
v 3.175000 3.050000 -2.250000
v 3.175000 3.050000 -1.750000
v 3.175000 3.350000 -2.250000
v 3.175000 3.350000 -1.750000
v 3.425000 3.050000 -2.250000
v 3.425000 3.050000 -1.750000
v 3.425000 3.350000 -2.250000
v 3.425000 3.350000 -1.750000
usemtl c_28dc5a_100
f 313 314 316 315
f 317 319 320 318
f 313 317 318 314
f 315 316 320 319
f 313 315 319 317
f 314 318 320 316
o Ref_TailLight
v -0.150000 9.000000 14.600000
v -0.150000 9.000000 14.900000
v -0.150000 9.300000 14.600000
v -0.150000 9.300000 14.900000
v 0.150000 9.000000 14.600000
v 0.150000 9.000000 14.900000
v 0.150000 9.300000 14.600000
v 0.150000 9.300000 14.900000
usemtl c_e62828_100
f 321 322 324 323
f 325 327 328 326
f 321 325 326 322
f 323 324 328 327
f 321 323 327 325
f 322 326 328 324
o Ref_Searchlight
v -0.450000 0.615193 -5.239711
v -0.450000 1.065192 -4.460289
v -0.450000 1.134808 -5.539711
v -0.450000 1.584808 -4.760289
v 0.450000 0.615193 -5.239711
v 0.450000 1.065192 -4.460289
v 0.450000 1.134808 -5.539711
v 0.450000 1.584808 -4.760289
usemtl c_fff4d6_100
f 329 330 332 331
f 333 335 336 334
f 329 333 334 330
f 331 332 336 335
f 329 331 335 333
f 330 334 336 332
o Seat_Driver
v -1.560000 3.940000 -2.160000
v -1.560000 3.940000 -2.040000
v -1.560000 4.060000 -2.160000
v -1.560000 4.060000 -2.040000
v -1.440000 3.940000 -2.160000
v -1.440000 3.940000 -2.040000
v -1.440000 4.060000 -2.160000
v -1.440000 4.060000 -2.040000
usemtl c_ff00ff_100
f 337 338 340 339
f 341 343 344 342
f 337 341 342 338
f 339 340 344 343
f 337 339 343 341
f 338 342 344 340
o Seat_2
v 1.440000 3.940000 -2.160000
v 1.440000 3.940000 -2.040000
v 1.440000 4.060000 -2.160000
v 1.440000 4.060000 -2.040000
v 1.560000 3.940000 -2.160000
v 1.560000 3.940000 -2.040000
v 1.560000 4.060000 -2.160000
v 1.560000 4.060000 -2.040000
usemtl c_ff00ff_100
f 345 346 348 347
f 349 351 352 350
f 345 349 350 346
f 347 348 352 351
f 345 347 351 349
f 346 350 352 348
o Seat_3
v -1.560000 3.940000 1.640000
v -1.560000 3.940000 1.760000
v -1.560000 4.060000 1.640000
v -1.560000 4.060000 1.760000
v -1.440000 3.940000 1.640000
v -1.440000 3.940000 1.760000
v -1.440000 4.060000 1.640000
v -1.440000 4.060000 1.760000
usemtl c_ff00ff_100
f 353 354 356 355
f 357 359 360 358
f 353 357 358 354
f 355 356 360 359
f 353 355 359 357
f 354 358 360 356
o Seat_4
v 1.440000 3.940000 1.640000
v 1.440000 3.940000 1.760000
v 1.440000 4.060000 1.640000
v 1.440000 4.060000 1.760000
v 1.560000 3.940000 1.640000
v 1.560000 3.940000 1.760000
v 1.560000 4.060000 1.640000
v 1.560000 4.060000 1.760000
usemtl c_ff00ff_100
f 361 362 364 363
f 365 367 368 366
f 361 365 366 362
f 363 364 368 367
f 361 363 367 365
f 362 366 368 364
o Ref_Ground
v -4.700000 -0.050000 -7.500000
v -4.700000 -0.050000 7.500000
v -4.700000 0.000000 -7.500000
v -4.700000 0.000000 7.500000
v 4.700000 -0.050000 -7.500000
v 4.700000 -0.050000 7.500000
v 4.700000 0.000000 -7.500000
v 4.700000 0.000000 7.500000
usemtl c_46484c_100
f 369 370 372 371
f 373 375 376 374
f 369 373 374 370
f 371 372 376 375
f 369 371 375 373
f 370 374 376 372
