# Vorlage Fahrzeug Pickup - 1 Einheit = 1 Stud, oben +Y, vorne -Z (Roblox), Boden y = 0.
# Ref_Chassis = Rumpf im Spiel (kollidiert, wird getroffen). Wheel_* = Räder an der Achse, Seat_* = Sitzflächen.
# Ref_* nur als Maßstab: vor dem Export löschen. Spezifikation: docs/3d-richtlinien.md
mtllib Pickup.mtl
o Ref_Chassis
v -3.200000 1.400000 -6.250000
v -3.200000 1.400000 6.250000
v -3.200000 4.000000 -6.250000
v -3.200000 4.000000 6.250000
v 3.200000 1.400000 -6.250000
v 3.200000 1.400000 6.250000
v 3.200000 4.000000 -6.250000
v 3.200000 4.000000 6.250000
usemtl c_e67828_30
f 1 2 4 3
f 5 7 8 6
f 1 5 6 2
f 3 4 8 7
f 1 3 7 5
f 2 6 8 4
o Ref_Body
v -3.200000 1.630000 -6.250000
v -3.200000 1.630000 6.250000
v -3.200000 3.970000 -6.250000
v -3.200000 3.970000 6.250000
v 3.200000 1.630000 -6.250000
v 3.200000 1.630000 6.250000
v 3.200000 3.970000 -6.250000
v 3.200000 3.970000 6.250000
usemtl c_566846_100
f 9 10 12 11
f 13 15 16 14
f 9 13 14 10
f 11 12 16 15
f 9 11 15 13
f 10 14 16 12
o Ref_Hood
v -3.000000 4.050000 -6.000000
v -3.000000 4.050000 -2.000000
v -3.000000 4.550000 -6.000000
v -3.000000 4.550000 -2.000000
v 3.000000 4.050000 -6.000000
v 3.000000 4.050000 -2.000000
v 3.000000 4.550000 -6.000000
v 3.000000 4.550000 -2.000000
usemtl c_566846_100
f 17 18 20 19
f 21 23 24 22
f 17 21 22 18
f 19 20 24 23
f 17 19 23 21
f 18 22 24 20
o Ref_Windshield
v -2.900000 4.414044 -1.570353
v -2.900000 4.482448 -1.382415
v -2.900000 5.917552 -2.117585
v -2.900000 5.985956 -1.929647
v 2.900000 4.414044 -1.570353
v 2.900000 4.482448 -1.382415
v 2.900000 5.917552 -2.117585
v 2.900000 5.985956 -1.929647
usemtl c_96b4c8_55
f 25 26 28 27
f 29 31 32 30
f 25 29 30 26
f 27 28 32 31
f 25 27 31 29
f 26 30 32 28
o Ref_RollBar
v -3.050000 6.450000 1.350000
v -3.050000 6.450000 1.650000
v -3.050000 6.750000 1.350000
v -3.050000 6.750000 1.650000
v 3.050000 6.450000 1.350000
v 3.050000 6.450000 1.650000
v 3.050000 6.750000 1.350000
v 3.050000 6.750000 1.650000
usemtl c_2f3926_100
f 33 34 36 35
f 37 39 40 38
f 33 37 38 34
f 35 36 40 39
f 33 35 39 37
f 34 38 40 36
o Ref_RollBarPost
v -3.050000 4.100000 1.350000
v -3.050000 4.100000 1.650000
v -3.050000 6.500000 1.350000
v -3.050000 6.500000 1.650000
v -2.750000 4.100000 1.350000
v -2.750000 4.100000 1.650000
v -2.750000 6.500000 1.350000
v -2.750000 6.500000 1.650000
usemtl c_2f3926_100
f 41 42 44 43
f 45 47 48 46
f 41 45 46 42
f 43 44 48 47
f 41 43 47 45
f 42 46 48 44
o Ref_Headlight
v -2.750000 2.800000 -6.350000
v -2.750000 2.800000 -6.250000
v -2.750000 3.200000 -6.350000
v -2.750000 3.200000 -6.250000
v -1.850000 2.800000 -6.350000
v -1.850000 2.800000 -6.250000
v -1.850000 3.200000 -6.350000
v -1.850000 3.200000 -6.250000
usemtl c_fff4d6_100
f 49 50 52 51
f 53 55 56 54
f 49 53 54 50
f 51 52 56 55
f 49 51 55 53
f 50 54 56 52
o Ref_Taillight
v -2.800000 2.825000 6.250000
v -2.800000 2.825000 6.350000
v -2.800000 3.175000 6.250000
v -2.800000 3.175000 6.350000
v -2.000000 2.825000 6.250000
v -2.000000 2.825000 6.350000
v -2.000000 3.175000 6.250000
v -2.000000 3.175000 6.350000
usemtl c_c81e1e_100
f 57 58 60 59
f 61 63 64 62
f 57 61 62 58
f 59 60 64 63
f 57 59 63 61
f 58 62 64 60
o Ref_RollBarPost
v 2.750000 4.100000 1.350000
v 2.750000 4.100000 1.650000
v 2.750000 6.500000 1.350000
v 2.750000 6.500000 1.650000
v 3.050000 4.100000 1.350000
v 3.050000 4.100000 1.650000
v 3.050000 6.500000 1.350000
v 3.050000 6.500000 1.650000
usemtl c_2f3926_100
f 65 66 68 67
f 69 71 72 70
f 65 69 70 66
f 67 68 72 71
f 65 67 71 69
f 66 70 72 68
o Ref_Headlight
v 1.850000 2.800000 -6.350000
v 1.850000 2.800000 -6.250000
v 1.850000 3.200000 -6.350000
v 1.850000 3.200000 -6.250000
v 2.750000 2.800000 -6.350000
v 2.750000 2.800000 -6.250000
v 2.750000 3.200000 -6.350000
v 2.750000 3.200000 -6.250000
usemtl c_fff4d6_100
f 73 74 76 75
f 77 79 80 78
f 73 77 78 74
f 75 76 80 79
f 73 75 79 77
f 74 78 80 76
o Ref_Taillight
v 2.000000 2.825000 6.250000
v 2.000000 2.825000 6.350000
v 2.000000 3.175000 6.250000
v 2.000000 3.175000 6.350000
v 2.800000 2.825000 6.250000
v 2.800000 2.825000 6.350000
v 2.800000 3.175000 6.250000
v 2.800000 3.175000 6.350000
usemtl c_c81e1e_100
f 81 82 84 83
f 85 87 88 86
f 81 85 86 82
f 83 84 88 87
f 81 83 87 85
f 82 86 88 84
o Ref_BedWallL
v -3.200000 4.000000 1.750000
v -3.200000 4.000000 6.000000
v -3.200000 5.200000 1.750000
v -3.200000 5.200000 6.000000
v -2.900000 4.000000 1.750000
v -2.900000 4.000000 6.000000
v -2.900000 5.200000 1.750000
v -2.900000 5.200000 6.000000
usemtl c_566846_100
f 89 90 92 91
f 93 95 96 94
f 89 93 94 90
f 91 92 96 95
f 89 91 95 93
f 90 94 96 92
o Ref_BedWallR
v 2.900000 4.000000 1.750000
v 2.900000 4.000000 6.000000
v 2.900000 5.200000 1.750000
v 2.900000 5.200000 6.000000
v 3.200000 4.000000 1.750000
v 3.200000 4.000000 6.000000
v 3.200000 5.200000 1.750000
v 3.200000 5.200000 6.000000
usemtl c_566846_100
f 97 98 100 99
f 101 103 104 102
f 97 101 102 98
f 99 100 104 103
f 97 99 103 101
f 98 102 104 100
o Ref_BedWallBack
v -3.200000 4.000000 5.950000
v -3.200000 4.000000 6.250000
v -3.200000 5.200000 5.950000
v -3.200000 5.200000 6.250000
v 3.200000 4.000000 5.950000
v 3.200000 4.000000 6.250000
v 3.200000 5.200000 5.950000
v 3.200000 5.200000 6.250000
usemtl c_566846_100
f 105 106 108 107
f 109 111 112 110
f 105 109 110 106
f 107 108 112 111
f 105 107 111 109
f 106 110 112 108
o Wheel_FL
v -3.500000 2.500000 -4.850000
v -3.500000 2.401043 -4.352512
v -3.500000 2.119239 -3.930761
v -3.500000 1.697488 -3.648957
v -3.500000 1.200000 -3.550000
v -3.500000 0.702512 -3.648957
v -3.500000 0.280761 -3.930761
v -3.500000 -0.001043 -4.352512
v -3.500000 -0.100000 -4.850000
v -3.500000 -0.001043 -5.347488
v -3.500000 0.280761 -5.769239
v -3.500000 0.702512 -6.051043
v -3.500000 1.200000 -6.150000
v -3.500000 1.697488 -6.051043
v -3.500000 2.119239 -5.769239
v -3.500000 2.401043 -5.347488
v -2.500000 2.500000 -4.850000
v -2.500000 2.401043 -4.352512
v -2.500000 2.119239 -3.930761
v -2.500000 1.697488 -3.648957
v -2.500000 1.200000 -3.550000
v -2.500000 0.702512 -3.648957
v -2.500000 0.280761 -3.930761
v -2.500000 -0.001043 -4.352512
v -2.500000 -0.100000 -4.850000
v -2.500000 -0.001043 -5.347488
v -2.500000 0.280761 -5.769239
v -2.500000 0.702512 -6.051043
v -2.500000 1.200000 -6.150000
v -2.500000 1.697488 -6.051043
v -2.500000 2.119239 -5.769239
v -2.500000 2.401043 -5.347488
usemtl c_28282c_100
f 113 114 130 129
f 114 115 131 130
f 115 116 132 131
f 116 117 133 132
f 117 118 134 133
f 118 119 135 134
f 119 120 136 135
f 120 121 137 136
f 121 122 138 137
f 122 123 139 138
f 123 124 140 139
f 124 125 141 140
f 125 126 142 141
f 126 127 143 142
f 127 128 144 143
f 128 113 129 144
f 128 127 126 125 124 123 122 121 120 119 118 117 116 115 114 113
f 129 130 131 132 133 134 135 136 137 138 139 140 141 142 143 144
o Wheel_RL
v -3.500000 2.500000 4.850000
v -3.500000 2.401043 5.347488
v -3.500000 2.119239 5.769239
v -3.500000 1.697488 6.051043
v -3.500000 1.200000 6.150000
v -3.500000 0.702512 6.051043
v -3.500000 0.280761 5.769239
v -3.500000 -0.001043 5.347488
v -3.500000 -0.100000 4.850000
v -3.500000 -0.001043 4.352512
v -3.500000 0.280761 3.930761
v -3.500000 0.702512 3.648957
v -3.500000 1.200000 3.550000
v -3.500000 1.697488 3.648957
v -3.500000 2.119239 3.930761
v -3.500000 2.401043 4.352512
v -2.500000 2.500000 4.850000
v -2.500000 2.401043 5.347488
v -2.500000 2.119239 5.769239
v -2.500000 1.697488 6.051043
v -2.500000 1.200000 6.150000
v -2.500000 0.702512 6.051043
v -2.500000 0.280761 5.769239
v -2.500000 -0.001043 5.347488
v -2.500000 -0.100000 4.850000
v -2.500000 -0.001043 4.352512
v -2.500000 0.280761 3.930761
v -2.500000 0.702512 3.648957
v -2.500000 1.200000 3.550000
v -2.500000 1.697488 3.648957
v -2.500000 2.119239 3.930761
v -2.500000 2.401043 4.352512
usemtl c_28282c_100
f 145 146 162 161
f 146 147 163 162
f 147 148 164 163
f 148 149 165 164
f 149 150 166 165
f 150 151 167 166
f 151 152 168 167
f 152 153 169 168
f 153 154 170 169
f 154 155 171 170
f 155 156 172 171
f 156 157 173 172
f 157 158 174 173
f 158 159 175 174
f 159 160 176 175
f 160 145 161 176
f 160 159 158 157 156 155 154 153 152 151 150 149 148 147 146 145
f 161 162 163 164 165 166 167 168 169 170 171 172 173 174 175 176
o Wheel_FR
v 2.500000 2.500000 -4.850000
v 2.500000 2.401043 -4.352512
v 2.500000 2.119239 -3.930761
v 2.500000 1.697488 -3.648957
v 2.500000 1.200000 -3.550000
v 2.500000 0.702512 -3.648957
v 2.500000 0.280761 -3.930761
v 2.500000 -0.001043 -4.352512
v 2.500000 -0.100000 -4.850000
v 2.500000 -0.001043 -5.347488
v 2.500000 0.280761 -5.769239
v 2.500000 0.702512 -6.051043
v 2.500000 1.200000 -6.150000
v 2.500000 1.697488 -6.051043
v 2.500000 2.119239 -5.769239
v 2.500000 2.401043 -5.347488
v 3.500000 2.500000 -4.850000
v 3.500000 2.401043 -4.352512
v 3.500000 2.119239 -3.930761
v 3.500000 1.697488 -3.648957
v 3.500000 1.200000 -3.550000
v 3.500000 0.702512 -3.648957
v 3.500000 0.280761 -3.930761
v 3.500000 -0.001043 -4.352512
v 3.500000 -0.100000 -4.850000
v 3.500000 -0.001043 -5.347488
v 3.500000 0.280761 -5.769239
v 3.500000 0.702512 -6.051043
v 3.500000 1.200000 -6.150000
v 3.500000 1.697488 -6.051043
v 3.500000 2.119239 -5.769239
v 3.500000 2.401043 -5.347488
usemtl c_28282c_100
f 177 178 194 193
f 178 179 195 194
f 179 180 196 195
f 180 181 197 196
f 181 182 198 197
f 182 183 199 198
f 183 184 200 199
f 184 185 201 200
f 185 186 202 201
f 186 187 203 202
f 187 188 204 203
f 188 189 205 204
f 189 190 206 205
f 190 191 207 206
f 191 192 208 207
f 192 177 193 208
f 192 191 190 189 188 187 186 185 184 183 182 181 180 179 178 177
f 193 194 195 196 197 198 199 200 201 202 203 204 205 206 207 208
o Wheel_RR
v 2.500000 2.500000 4.850000
v 2.500000 2.401043 5.347488
v 2.500000 2.119239 5.769239
v 2.500000 1.697488 6.051043
v 2.500000 1.200000 6.150000
v 2.500000 0.702512 6.051043
v 2.500000 0.280761 5.769239
v 2.500000 -0.001043 5.347488
v 2.500000 -0.100000 4.850000
v 2.500000 -0.001043 4.352512
v 2.500000 0.280761 3.930761
v 2.500000 0.702512 3.648957
v 2.500000 1.200000 3.550000
v 2.500000 1.697488 3.648957
v 2.500000 2.119239 3.930761
v 2.500000 2.401043 4.352512
v 3.500000 2.500000 4.850000
v 3.500000 2.401043 5.347488
v 3.500000 2.119239 5.769239
v 3.500000 1.697488 6.051043
v 3.500000 1.200000 6.150000
v 3.500000 0.702512 6.051043
v 3.500000 0.280761 5.769239
v 3.500000 -0.001043 5.347488
v 3.500000 -0.100000 4.850000
v 3.500000 -0.001043 4.352512
v 3.500000 0.280761 3.930761
v 3.500000 0.702512 3.648957
v 3.500000 1.200000 3.550000
v 3.500000 1.697488 3.648957
v 3.500000 2.119239 3.930761
v 3.500000 2.401043 4.352512
usemtl c_28282c_100
f 209 210 226 225
f 210 211 227 226
f 211 212 228 227
f 212 213 229 228
f 213 214 230 229
f 214 215 231 230
f 215 216 232 231
f 216 217 233 232
f 217 218 234 233
f 218 219 235 234
f 219 220 236 235
f 220 221 237 236
f 221 222 238 237
f 222 223 239 238
f 223 224 240 239
f 224 209 225 240
f 224 223 222 221 220 219 218 217 216 215 214 213 212 211 210 209
f 225 226 227 228 229 230 231 232 233 234 235 236 237 238 239 240
o Seat_Driver
v -1.660000 4.540000 -0.310000
v -1.660000 4.540000 -0.190000
v -1.660000 4.660000 -0.310000
v -1.660000 4.660000 -0.190000
v -1.540000 4.540000 -0.310000
v -1.540000 4.540000 -0.190000
v -1.540000 4.660000 -0.310000
v -1.540000 4.660000 -0.190000
usemtl c_ff00ff_100
f 241 242 244 243
f 245 247 248 246
f 241 245 246 242
f 243 244 248 247
f 241 243 247 245
f 242 246 248 244
o Seat_2
v 1.540000 4.540000 -0.310000
v 1.540000 4.540000 -0.190000
v 1.540000 4.660000 -0.310000
v 1.540000 4.660000 -0.190000
v 1.660000 4.540000 -0.310000
v 1.660000 4.540000 -0.190000
v 1.660000 4.660000 -0.310000
v 1.660000 4.660000 -0.190000
usemtl c_ff00ff_100
f 249 250 252 251
f 253 255 256 254
f 249 253 254 250
f 251 252 256 255
f 249 251 255 253
f 250 254 256 252
o Seat_3
v -1.660000 4.540000 3.690000
v -1.660000 4.540000 3.810000
v -1.660000 4.660000 3.690000
v -1.660000 4.660000 3.810000
v -1.540000 4.540000 3.690000
v -1.540000 4.540000 3.810000
v -1.540000 4.660000 3.690000
v -1.540000 4.660000 3.810000
usemtl c_ff00ff_100
f 257 258 260 259
f 261 263 264 262
f 257 261 262 258
f 259 260 264 263
f 257 259 263 261
f 258 262 264 260
o Seat_4
v 1.540000 4.540000 3.690000
v 1.540000 4.540000 3.810000
v 1.540000 4.660000 3.690000
v 1.540000 4.660000 3.810000
v 1.660000 4.540000 3.690000
v 1.660000 4.540000 3.810000
v 1.660000 4.660000 3.690000
v 1.660000 4.660000 3.810000
usemtl c_ff00ff_100
f 265 266 268 267
f 269 271 272 270
f 265 269 270 266
f 267 268 272 271
f 265 267 271 269
f 266 270 272 268
o Ref_Ground
v -4.700000 -0.050000 -7.750000
v -4.700000 -0.050000 7.750000
v -4.700000 0.000000 -7.750000
v -4.700000 0.000000 7.750000
v 4.700000 -0.050000 -7.750000
v 4.700000 -0.050000 7.750000
v 4.700000 0.000000 -7.750000
v 4.700000 0.000000 7.750000
usemtl c_46484c_100
f 273 274 276 275
f 277 279 280 278
f 273 277 278 274
f 275 276 280 279
f 273 275 279 277
f 274 278 280 276
