# Vorlage Fahrzeug Quad - 1 Einheit = 1 Stud, oben +Y, vorne -Z (Roblox), Boden y = 0.
# Ref_Chassis = Rumpf im Spiel (kollidiert, wird getroffen). Wheel_* = Räder an der Achse, Seat_* = Sitzflächen.
# Ref_* nur als Maßstab: vor dem Export löschen. Spezifikation: docs/3d-richtlinien.md
mtllib Quad.mtl
o Ref_Chassis
v -2.300000 1.400000 -3.300000
v -2.300000 1.400000 3.300000
v -2.300000 3.400000 -3.300000
v -2.300000 3.400000 3.300000
v 2.300000 1.400000 -3.300000
v 2.300000 1.400000 3.300000
v 2.300000 3.400000 -3.300000
v 2.300000 3.400000 3.300000
usemtl c_e67828_30
f 1 2 4 3
f 5 7 8 6
f 1 5 6 2
f 3 4 8 7
f 1 3 7 5
f 2 6 8 4
o Ref_Body
v -1.700000 1.800000 -2.800000
v -1.700000 1.800000 2.800000
v -1.700000 3.400000 -2.800000
v -1.700000 3.400000 2.800000
v 1.700000 1.800000 -2.800000
v 1.700000 1.800000 2.800000
v 1.700000 3.400000 -2.800000
v 1.700000 3.400000 2.800000
usemtl c_c47832_100
f 9 10 12 11
f 13 15 16 14
f 9 13 14 10
f 11 12 16 15
f 9 11 15 13
f 10 14 16 12
o Ref_Fender
v -2.300000 3.100000 -3.000000
v -2.300000 3.100000 -1.200000
v -2.300000 3.500000 -3.000000
v -2.300000 3.500000 -1.200000
v 2.300000 3.100000 -3.000000
v 2.300000 3.100000 -1.200000
v 2.300000 3.500000 -3.000000
v 2.300000 3.500000 -1.200000
usemtl c_6c421c_100
f 17 18 20 19
f 21 23 24 22
f 17 21 22 18
f 19 20 24 23
f 17 19 23 21
f 18 22 24 20
o Ref_Fender
v -2.300000 3.100000 1.200000
v -2.300000 3.100000 3.000000
v -2.300000 3.500000 1.200000
v -2.300000 3.500000 3.000000
v 2.300000 3.100000 1.200000
v 2.300000 3.100000 3.000000
v 2.300000 3.500000 1.200000
v 2.300000 3.500000 3.000000
usemtl c_6c421c_100
f 25 26 28 27
f 29 31 32 30
f 25 29 30 26
f 27 28 32 31
f 25 27 31 29
f 26 30 32 28
o Ref_Handlebar
v -1.300000 4.375000 -1.445000
v -1.300000 4.375000 -1.195000
v -1.300000 4.625000 -1.445000
v -1.300000 4.625000 -1.195000
v 1.300000 4.375000 -1.445000
v 1.300000 4.375000 -1.195000
v 1.300000 4.625000 -1.445000
v 1.300000 4.625000 -1.195000
usemtl c_1e1e20_100
f 33 34 36 35
f 37 39 40 38
f 33 37 38 34
f 35 36 40 39
f 33 35 39 37
f 34 38 40 36
o Ref_Steering
v -0.125000 3.400000 -1.313000
v -0.125000 3.400000 -1.063000
v -0.125000 4.500000 -1.313000
v -0.125000 4.500000 -1.063000
v 0.125000 3.400000 -1.313000
v 0.125000 3.400000 -1.063000
v 0.125000 4.500000 -1.313000
v 0.125000 4.500000 -1.063000
usemtl c_1e1e20_100
f 41 42 44 43
f 45 47 48 46
f 41 45 46 42
f 43 44 48 47
f 41 43 47 45
f 42 46 48 44
o Ref_Headlight
v -0.700000 2.600000 -2.950000
v -0.700000 2.600000 -2.850000
v -0.700000 3.000000 -2.950000
v -0.700000 3.000000 -2.850000
v 0.700000 2.600000 -2.950000
v 0.700000 2.600000 -2.850000
v 0.700000 3.000000 -2.950000
v 0.700000 3.000000 -2.850000
usemtl c_fff4d6_100
f 49 50 52 51
f 53 55 56 54
f 49 53 54 50
f 51 52 56 55
f 49 51 55 53
f 50 54 56 52
o Wheel_FL
v -2.600000 2.500000 -1.900000
v -2.600000 2.408655 -1.440780
v -2.600000 2.148528 -1.051472
v -2.600000 1.759220 -0.791345
v -2.600000 1.300000 -0.700000
v -2.600000 0.840780 -0.791345
v -2.600000 0.451472 -1.051472
v -2.600000 0.191345 -1.440780
v -2.600000 0.100000 -1.900000
v -2.600000 0.191345 -2.359220
v -2.600000 0.451472 -2.748528
v -2.600000 0.840780 -3.008655
v -2.600000 1.300000 -3.100000
v -2.600000 1.759220 -3.008655
v -2.600000 2.148528 -2.748528
v -2.600000 2.408655 -2.359220
v -1.400000 2.500000 -1.900000
v -1.400000 2.408655 -1.440780
v -1.400000 2.148528 -1.051472
v -1.400000 1.759220 -0.791345
v -1.400000 1.300000 -0.700000
v -1.400000 0.840780 -0.791345
v -1.400000 0.451472 -1.051472
v -1.400000 0.191345 -1.440780
v -1.400000 0.100000 -1.900000
v -1.400000 0.191345 -2.359220
v -1.400000 0.451472 -2.748528
v -1.400000 0.840780 -3.008655
v -1.400000 1.300000 -3.100000
v -1.400000 1.759220 -3.008655
v -1.400000 2.148528 -2.748528
v -1.400000 2.408655 -2.359220
usemtl c_28282c_100
f 57 58 74 73
f 58 59 75 74
f 59 60 76 75
f 60 61 77 76
f 61 62 78 77
f 62 63 79 78
f 63 64 80 79
f 64 65 81 80
f 65 66 82 81
f 66 67 83 82
f 67 68 84 83
f 68 69 85 84
f 69 70 86 85
f 70 71 87 86
f 71 72 88 87
f 72 57 73 88
f 72 71 70 69 68 67 66 65 64 63 62 61 60 59 58 57
f 73 74 75 76 77 78 79 80 81 82 83 84 85 86 87 88
o Wheel_RL
v -2.600000 2.500000 1.900000
v -2.600000 2.408655 2.359220
v -2.600000 2.148528 2.748528
v -2.600000 1.759220 3.008655
v -2.600000 1.300000 3.100000
v -2.600000 0.840780 3.008655
v -2.600000 0.451472 2.748528
v -2.600000 0.191345 2.359220
v -2.600000 0.100000 1.900000
v -2.600000 0.191345 1.440780
v -2.600000 0.451472 1.051472
v -2.600000 0.840780 0.791345
v -2.600000 1.300000 0.700000
v -2.600000 1.759220 0.791345
v -2.600000 2.148528 1.051472
v -2.600000 2.408655 1.440780
v -1.400000 2.500000 1.900000
v -1.400000 2.408655 2.359220
v -1.400000 2.148528 2.748528
v -1.400000 1.759220 3.008655
v -1.400000 1.300000 3.100000
v -1.400000 0.840780 3.008655
v -1.400000 0.451472 2.748528
v -1.400000 0.191345 2.359220
v -1.400000 0.100000 1.900000
v -1.400000 0.191345 1.440780
v -1.400000 0.451472 1.051472
v -1.400000 0.840780 0.791345
v -1.400000 1.300000 0.700000
v -1.400000 1.759220 0.791345
v -1.400000 2.148528 1.051472
v -1.400000 2.408655 1.440780
usemtl c_28282c_100
f 89 90 106 105
f 90 91 107 106
f 91 92 108 107
f 92 93 109 108
f 93 94 110 109
f 94 95 111 110
f 95 96 112 111
f 96 97 113 112
f 97 98 114 113
f 98 99 115 114
f 99 100 116 115
f 100 101 117 116
f 101 102 118 117
f 102 103 119 118
f 103 104 120 119
f 104 89 105 120
f 104 103 102 101 100 99 98 97 96 95 94 93 92 91 90 89
f 105 106 107 108 109 110 111 112 113 114 115 116 117 118 119 120
o Wheel_FR
v 1.400000 2.500000 -1.900000
v 1.400000 2.408655 -1.440780
v 1.400000 2.148528 -1.051472
v 1.400000 1.759220 -0.791345
v 1.400000 1.300000 -0.700000
v 1.400000 0.840780 -0.791345
v 1.400000 0.451472 -1.051472
v 1.400000 0.191345 -1.440780
v 1.400000 0.100000 -1.900000
v 1.400000 0.191345 -2.359220
v 1.400000 0.451472 -2.748528
v 1.400000 0.840780 -3.008655
v 1.400000 1.300000 -3.100000
v 1.400000 1.759220 -3.008655
v 1.400000 2.148528 -2.748528
v 1.400000 2.408655 -2.359220
v 2.600000 2.500000 -1.900000
v 2.600000 2.408655 -1.440780
v 2.600000 2.148528 -1.051472
v 2.600000 1.759220 -0.791345
v 2.600000 1.300000 -0.700000
v 2.600000 0.840780 -0.791345
v 2.600000 0.451472 -1.051472
v 2.600000 0.191345 -1.440780
v 2.600000 0.100000 -1.900000
v 2.600000 0.191345 -2.359220
v 2.600000 0.451472 -2.748528
v 2.600000 0.840780 -3.008655
v 2.600000 1.300000 -3.100000
v 2.600000 1.759220 -3.008655
v 2.600000 2.148528 -2.748528
v 2.600000 2.408655 -2.359220
usemtl c_28282c_100
f 121 122 138 137
f 122 123 139 138
f 123 124 140 139
f 124 125 141 140
f 125 126 142 141
f 126 127 143 142
f 127 128 144 143
f 128 129 145 144
f 129 130 146 145
f 130 131 147 146
f 131 132 148 147
f 132 133 149 148
f 133 134 150 149
f 134 135 151 150
f 135 136 152 151
f 136 121 137 152
f 136 135 134 133 132 131 130 129 128 127 126 125 124 123 122 121
f 137 138 139 140 141 142 143 144 145 146 147 148 149 150 151 152
o Wheel_RR
v 1.400000 2.500000 1.900000
v 1.400000 2.408655 2.359220
v 1.400000 2.148528 2.748528
v 1.400000 1.759220 3.008655
v 1.400000 1.300000 3.100000
v 1.400000 0.840780 3.008655
v 1.400000 0.451472 2.748528
v 1.400000 0.191345 2.359220
v 1.400000 0.100000 1.900000
v 1.400000 0.191345 1.440780
v 1.400000 0.451472 1.051472
v 1.400000 0.840780 0.791345
v 1.400000 1.300000 0.700000
v 1.400000 1.759220 0.791345
v 1.400000 2.148528 1.051472
v 1.400000 2.408655 1.440780
v 2.600000 2.500000 1.900000
v 2.600000 2.408655 2.359220
v 2.600000 2.148528 2.748528
v 2.600000 1.759220 3.008655
v 2.600000 1.300000 3.100000
v 2.600000 0.840780 3.008655
v 2.600000 0.451472 2.748528
v 2.600000 0.191345 2.359220
v 2.600000 0.100000 1.900000
v 2.600000 0.191345 1.440780
v 2.600000 0.451472 1.051472
v 2.600000 0.840780 0.791345
v 2.600000 1.300000 0.700000
v 2.600000 1.759220 0.791345
v 2.600000 2.148528 1.051472
v 2.600000 2.408655 1.440780
usemtl c_28282c_100
f 153 154 170 169
f 154 155 171 170
f 155 156 172 171
f 156 157 173 172
f 157 158 174 173
f 158 159 175 174
f 159 160 176 175
f 160 161 177 176
f 161 162 178 177
f 162 163 179 178
f 163 164 180 179
f 164 165 181 180
f 165 166 182 181
f 166 167 183 182
f 167 168 184 183
f 168 153 169 184
f 168 167 166 165 164 163 162 161 160 159 158 157 156 155 154 153
f 169 170 171 172 173 174 175 176 177 178 179 180 181 182 183 184
o Seat_Driver
v -0.060000 3.840000 0.732000
v -0.060000 3.840000 0.852000
v -0.060000 3.960000 0.732000
v -0.060000 3.960000 0.852000
v 0.060000 3.840000 0.732000
v 0.060000 3.840000 0.852000
v 0.060000 3.960000 0.732000
v 0.060000 3.960000 0.852000
usemtl c_ff00ff_100
f 185 186 188 187
f 189 191 192 190
f 185 189 190 186
f 187 188 192 191
f 185 187 191 189
f 186 190 192 188
o Ref_Ground
v -3.800000 -0.050000 -4.800000
v -3.800000 -0.050000 4.800000
v -3.800000 0.000000 -4.800000
v -3.800000 0.000000 4.800000
v 3.800000 -0.050000 -4.800000
v 3.800000 -0.050000 4.800000
v 3.800000 0.000000 -4.800000
v 3.800000 0.000000 4.800000
usemtl c_46484c_100
f 193 194 196 195
f 197 199 200 198
f 193 197 198 194
f 195 196 200 199
f 193 195 199 197
f 194 198 200 196
