# Vorlage Fahrzeug Sports - 1 Einheit = 1 Stud, oben +Y, vorne -Z (Roblox), Boden y = 0.
# Ref_Chassis = Rumpf im Spiel (kollidiert, wird getroffen). Wheel_* = Räder an der Achse, Seat_* = Sitzflächen.
# Ref_* nur als Maßstab: vor dem Export löschen. Spezifikation: docs/3d-richtlinien.md
mtllib Sports.mtl
o Ref_Chassis
v -3.100000 1.400000 -6.000000
v -3.100000 1.400000 6.000000
v -3.100000 3.300000 -6.000000
v -3.100000 3.300000 6.000000
v 3.100000 1.400000 -6.000000
v 3.100000 1.400000 6.000000
v 3.100000 3.300000 -6.000000
v 3.100000 3.300000 6.000000
usemtl c_e67828_30
f 1 2 4 3
f 5 7 8 6
f 1 5 6 2
f 3 4 8 7
f 1 3 7 5
f 2 6 8 4
o Ref_Body
v -3.100000 1.595000 -6.000000
v -3.100000 1.595000 6.000000
v -3.100000 3.305000 -6.000000
v -3.100000 3.305000 6.000000
v 3.100000 1.595000 -6.000000
v 3.100000 1.595000 6.000000
v 3.100000 3.305000 -6.000000
v 3.100000 3.305000 6.000000
usemtl c_c82828_100
f 9 10 12 11
f 13 15 16 14
f 9 13 14 10
f 11 12 16 15
f 9 11 15 13
f 10 14 16 12
o Ref_Hood
v -2.900000 3.350000 -5.760000
v -2.900000 3.350000 -1.920000
v -2.900000 3.850000 -5.760000
v -2.900000 3.850000 -1.920000
v 2.900000 3.350000 -5.760000
v 2.900000 3.350000 -1.920000
v 2.900000 3.850000 -5.760000
v 2.900000 3.850000 -1.920000
usemtl c_c82828_100
f 17 18 20 19
f 21 23 24 22
f 17 21 22 18
f 19 20 24 23
f 17 19 23 21
f 18 22 24 20
o Ref_Windshield
v -2.800000 3.714044 -1.500353
v -2.800000 3.782448 -1.312415
v -2.800000 5.217552 -2.047585
v -2.800000 5.285956 -1.859647
v 2.800000 3.714044 -1.500353
v 2.800000 3.782448 -1.312415
v 2.800000 5.217552 -2.047585
v 2.800000 5.285956 -1.859647
usemtl c_96b4c8_55
f 25 26 28 27
f 29 31 32 30
f 25 29 30 26
f 27 28 32 31
f 25 27 31 29
f 26 30 32 28
o Ref_RollBar
v -2.950000 5.750000 1.290000
v -2.950000 5.750000 1.590000
v -2.950000 6.050000 1.290000
v -2.950000 6.050000 1.590000
v 2.950000 5.750000 1.290000
v 2.950000 5.750000 1.590000
v 2.950000 6.050000 1.290000
v 2.950000 6.050000 1.590000
usemtl c_6e1616_100
f 33 34 36 35
f 37 39 40 38
f 33 37 38 34
f 35 36 40 39
f 33 35 39 37
f 34 38 40 36
o Ref_RollBarPost
v -2.950000 3.400000 1.290000
v -2.950000 3.400000 1.590000
v -2.950000 5.800000 1.290000
v -2.950000 5.800000 1.590000
v -2.650000 3.400000 1.290000
v -2.650000 3.400000 1.590000
v -2.650000 5.800000 1.290000
v -2.650000 5.800000 1.590000
usemtl c_6e1616_100
f 41 42 44 43
f 45 47 48 46
f 41 45 46 42
f 43 44 48 47
f 41 43 47 45
f 42 46 48 44
o Ref_Headlight
v -2.650000 2.450000 -6.100000
v -2.650000 2.450000 -6.000000
v -2.650000 2.850000 -6.100000
v -2.650000 2.850000 -6.000000
v -1.750000 2.450000 -6.100000
v -1.750000 2.450000 -6.000000
v -1.750000 2.850000 -6.100000
v -1.750000 2.850000 -6.000000
usemtl c_fff4d6_100
f 49 50 52 51
f 53 55 56 54
f 49 53 54 50
f 51 52 56 55
f 49 51 55 53
f 50 54 56 52
o Ref_Taillight
v -2.700000 2.475000 6.000000
v -2.700000 2.475000 6.100000
v -2.700000 2.825000 6.000000
v -2.700000 2.825000 6.100000
v -1.900000 2.475000 6.000000
v -1.900000 2.475000 6.100000
v -1.900000 2.825000 6.000000
v -1.900000 2.825000 6.100000
usemtl c_c81e1e_100
f 57 58 60 59
f 61 63 64 62
f 57 61 62 58
f 59 60 64 63
f 57 59 63 61
f 58 62 64 60
o Ref_RollBarPost
v 2.650000 3.400000 1.290000
v 2.650000 3.400000 1.590000
v 2.650000 5.800000 1.290000
v 2.650000 5.800000 1.590000
v 2.950000 3.400000 1.290000
v 2.950000 3.400000 1.590000
v 2.950000 5.800000 1.290000
v 2.950000 5.800000 1.590000
usemtl c_6e1616_100
f 65 66 68 67
f 69 71 72 70
f 65 69 70 66
f 67 68 72 71
f 65 67 71 69
f 66 70 72 68
o Ref_Headlight
v 1.750000 2.450000 -6.100000
v 1.750000 2.450000 -6.000000
v 1.750000 2.850000 -6.100000
v 1.750000 2.850000 -6.000000
v 2.650000 2.450000 -6.100000
v 2.650000 2.450000 -6.000000
v 2.650000 2.850000 -6.100000
v 2.650000 2.850000 -6.000000
usemtl c_fff4d6_100
f 73 74 76 75
f 77 79 80 78
f 73 77 78 74
f 75 76 80 79
f 73 75 79 77
f 74 78 80 76
o Ref_Taillight
v 1.900000 2.475000 6.000000
v 1.900000 2.475000 6.100000
v 1.900000 2.825000 6.000000
v 1.900000 2.825000 6.100000
v 2.700000 2.475000 6.000000
v 2.700000 2.475000 6.100000
v 2.700000 2.825000 6.000000
v 2.700000 2.825000 6.100000
usemtl c_c81e1e_100
f 81 82 84 83
f 85 87 88 86
f 81 85 86 82
f 83 84 88 87
f 81 83 87 85
f 82 86 88 84
o Ref_Spoiler
v -2.700000 4.100000 4.800000
v -2.700000 4.100000 6.000000
v -2.700000 4.300000 4.800000
v -2.700000 4.300000 6.000000
v 2.700000 4.100000 4.800000
v 2.700000 4.100000 6.000000
v 2.700000 4.300000 4.800000
v 2.700000 4.300000 6.000000
usemtl c_6e1616_100
f 89 90 92 91
f 93 95 96 94
f 89 93 94 90
f 91 92 96 95
f 89 91 95 93
f 90 94 96 92
o Wheel_FL
v -3.400000 2.500000 -4.600000
v -3.400000 2.401043 -4.102512
v -3.400000 2.119239 -3.680761
v -3.400000 1.697488 -3.398957
v -3.400000 1.200000 -3.300000
v -3.400000 0.702512 -3.398957
v -3.400000 0.280761 -3.680761
v -3.400000 -0.001043 -4.102512
v -3.400000 -0.100000 -4.600000
v -3.400000 -0.001043 -5.097488
v -3.400000 0.280761 -5.519239
v -3.400000 0.702512 -5.801043
v -3.400000 1.200000 -5.900000
v -3.400000 1.697488 -5.801043
v -3.400000 2.119239 -5.519239
v -3.400000 2.401043 -5.097488
v -2.400000 2.500000 -4.600000
v -2.400000 2.401043 -4.102512
v -2.400000 2.119239 -3.680761
v -2.400000 1.697488 -3.398957
v -2.400000 1.200000 -3.300000
v -2.400000 0.702512 -3.398957
v -2.400000 0.280761 -3.680761
v -2.400000 -0.001043 -4.102512
v -2.400000 -0.100000 -4.600000
v -2.400000 -0.001043 -5.097488
v -2.400000 0.280761 -5.519239
v -2.400000 0.702512 -5.801043
v -2.400000 1.200000 -5.900000
v -2.400000 1.697488 -5.801043
v -2.400000 2.119239 -5.519239
v -2.400000 2.401043 -5.097488
usemtl c_28282c_100
f 97 98 114 113
f 98 99 115 114
f 99 100 116 115
f 100 101 117 116
f 101 102 118 117
f 102 103 119 118
f 103 104 120 119
f 104 105 121 120
f 105 106 122 121
f 106 107 123 122
f 107 108 124 123
f 108 109 125 124
f 109 110 126 125
f 110 111 127 126
f 111 112 128 127
f 112 97 113 128
f 112 111 110 109 108 107 106 105 104 103 102 101 100 99 98 97
f 113 114 115 116 117 118 119 120 121 122 123 124 125 126 127 128
o Wheel_RL
v -3.400000 2.500000 4.600000
v -3.400000 2.401043 5.097488
v -3.400000 2.119239 5.519239
v -3.400000 1.697488 5.801043
v -3.400000 1.200000 5.900000
v -3.400000 0.702512 5.801043
v -3.400000 0.280761 5.519239
v -3.400000 -0.001043 5.097488
v -3.400000 -0.100000 4.600000
v -3.400000 -0.001043 4.102512
v -3.400000 0.280761 3.680761
v -3.400000 0.702512 3.398957
v -3.400000 1.200000 3.300000
v -3.400000 1.697488 3.398957
v -3.400000 2.119239 3.680761
v -3.400000 2.401043 4.102512
v -2.400000 2.500000 4.600000
v -2.400000 2.401043 5.097488
v -2.400000 2.119239 5.519239
v -2.400000 1.697488 5.801043
v -2.400000 1.200000 5.900000
v -2.400000 0.702512 5.801043
v -2.400000 0.280761 5.519239
v -2.400000 -0.001043 5.097488
v -2.400000 -0.100000 4.600000
v -2.400000 -0.001043 4.102512
v -2.400000 0.280761 3.680761
v -2.400000 0.702512 3.398957
v -2.400000 1.200000 3.300000
v -2.400000 1.697488 3.398957
v -2.400000 2.119239 3.680761
v -2.400000 2.401043 4.102512
usemtl c_28282c_100
f 129 130 146 145
f 130 131 147 146
f 131 132 148 147
f 132 133 149 148
f 133 134 150 149
f 134 135 151 150
f 135 136 152 151
f 136 137 153 152
f 137 138 154 153
f 138 139 155 154
f 139 140 156 155
f 140 141 157 156
f 141 142 158 157
f 142 143 159 158
f 143 144 160 159
f 144 129 145 160
f 144 143 142 141 140 139 138 137 136 135 134 133 132 131 130 129
f 145 146 147 148 149 150 151 152 153 154 155 156 157 158 159 160
o Wheel_FR
v 2.400000 2.500000 -4.600000
v 2.400000 2.401043 -4.102512
v 2.400000 2.119239 -3.680761
v 2.400000 1.697488 -3.398957
v 2.400000 1.200000 -3.300000
v 2.400000 0.702512 -3.398957
v 2.400000 0.280761 -3.680761
v 2.400000 -0.001043 -4.102512
v 2.400000 -0.100000 -4.600000
v 2.400000 -0.001043 -5.097488
v 2.400000 0.280761 -5.519239
v 2.400000 0.702512 -5.801043
v 2.400000 1.200000 -5.900000
v 2.400000 1.697488 -5.801043
v 2.400000 2.119239 -5.519239
v 2.400000 2.401043 -5.097488
v 3.400000 2.500000 -4.600000
v 3.400000 2.401043 -4.102512
v 3.400000 2.119239 -3.680761
v 3.400000 1.697488 -3.398957
v 3.400000 1.200000 -3.300000
v 3.400000 0.702512 -3.398957
v 3.400000 0.280761 -3.680761
v 3.400000 -0.001043 -4.102512
v 3.400000 -0.100000 -4.600000
v 3.400000 -0.001043 -5.097488
v 3.400000 0.280761 -5.519239
v 3.400000 0.702512 -5.801043
v 3.400000 1.200000 -5.900000
v 3.400000 1.697488 -5.801043
v 3.400000 2.119239 -5.519239
v 3.400000 2.401043 -5.097488
usemtl c_28282c_100
f 161 162 178 177
f 162 163 179 178
f 163 164 180 179
f 164 165 181 180
f 165 166 182 181
f 166 167 183 182
f 167 168 184 183
f 168 169 185 184
f 169 170 186 185
f 170 171 187 186
f 171 172 188 187
f 172 173 189 188
f 173 174 190 189
f 174 175 191 190
f 175 176 192 191
f 176 161 177 192
f 176 175 174 173 172 171 170 169 168 167 166 165 164 163 162 161
f 177 178 179 180 181 182 183 184 185 186 187 188 189 190 191 192
o Wheel_RR
v 2.400000 2.500000 4.600000
v 2.400000 2.401043 5.097488
v 2.400000 2.119239 5.519239
v 2.400000 1.697488 5.801043
v 2.400000 1.200000 5.900000
v 2.400000 0.702512 5.801043
v 2.400000 0.280761 5.519239
v 2.400000 -0.001043 5.097488
v 2.400000 -0.100000 4.600000
v 2.400000 -0.001043 4.102512
v 2.400000 0.280761 3.680761
v 2.400000 0.702512 3.398957
v 2.400000 1.200000 3.300000
v 2.400000 1.697488 3.398957
v 2.400000 2.119239 3.680761
v 2.400000 2.401043 4.102512
v 3.400000 2.500000 4.600000
v 3.400000 2.401043 5.097488
v 3.400000 2.119239 5.519239
v 3.400000 1.697488 5.801043
v 3.400000 1.200000 5.900000
v 3.400000 0.702512 5.801043
v 3.400000 0.280761 5.519239
v 3.400000 -0.001043 5.097488
v 3.400000 -0.100000 4.600000
v 3.400000 -0.001043 4.102512
v 3.400000 0.280761 3.680761
v 3.400000 0.702512 3.398957
v 3.400000 1.200000 3.300000
v 3.400000 1.697488 3.398957
v 3.400000 2.119239 3.680761
v 3.400000 2.401043 4.102512
usemtl c_28282c_100
f 193 194 210 209
f 194 195 211 210
f 195 196 212 211
f 196 197 213 212
f 197 198 214 213
f 198 199 215 214
f 199 200 216 215
f 200 201 217 216
f 201 202 218 217
f 202 203 219 218
f 203 204 220 219
f 204 205 221 220
f 205 206 222 221
f 206 207 223 222
f 207 208 224 223
f 208 193 209 224
f 208 207 206 205 204 203 202 201 200 199 198 197 196 195 194 193
f 209 210 211 212 213 214 215 216 217 218 219 220 221 222 223 224
o Seat_Driver
v -1.610000 3.840000 -0.300000
v -1.610000 3.840000 -0.180000
v -1.610000 3.960000 -0.300000
v -1.610000 3.960000 -0.180000
v -1.490000 3.840000 -0.300000
v -1.490000 3.840000 -0.180000
v -1.490000 3.960000 -0.300000
v -1.490000 3.960000 -0.180000
usemtl c_ff00ff_100
f 225 226 228 227
f 229 231 232 230
f 225 229 230 226
f 227 228 232 231
f 225 227 231 229
f 226 230 232 228
o Seat_2
v 1.490000 3.840000 -0.300000
v 1.490000 3.840000 -0.180000
v 1.490000 3.960000 -0.300000
v 1.490000 3.960000 -0.180000
v 1.610000 3.840000 -0.300000
v 1.610000 3.840000 -0.180000
v 1.610000 3.960000 -0.300000
v 1.610000 3.960000 -0.180000
usemtl c_ff00ff_100
f 233 234 236 235
f 237 239 240 238
f 233 237 238 234
f 235 236 240 239
f 233 235 239 237
f 234 238 240 236
o Ref_Ground
v -4.600000 -0.050000 -7.500000
v -4.600000 -0.050000 7.500000
v -4.600000 0.000000 -7.500000
v -4.600000 0.000000 7.500000
v 4.600000 -0.050000 -7.500000
v 4.600000 -0.050000 7.500000
v 4.600000 0.000000 -7.500000
v 4.600000 0.000000 7.500000
usemtl c_46484c_100
f 241 242 244 243
f 245 247 248 246
f 241 245 246 242
f 243 244 248 247
f 241 243 247 245
f 242 246 248 244
