# Vorlage DMR – 1 Einheit = 1 Stud, Lauf zeigt nach -Z (Roblox).
# Spezifikation: docs/waffen-modelle.md
mtllib DMR.mtl
o Grip
v -0.120000 -0.339964 -0.027596
v -0.120000 -0.262318 0.262182
v -0.120000 0.162318 -0.162182
v -0.120000 0.239964 0.127596
v 0.120000 -0.339964 -0.027596
v 0.120000 -0.262318 0.262182
v 0.120000 0.162318 -0.162182
v 0.120000 0.239964 0.127596
usemtl c_141416
f 1 2 4 3
f 5 7 8 6
f 1 5 6 2
f 3 4 8 7
f 1 3 7 5
f 2 6 8 4
o Skin_Body
v -0.160000 0.190000 -1.400000
v -0.160000 0.190000 0.600000
v -0.160000 0.610000 -1.400000
v -0.160000 0.610000 0.600000
v 0.160000 0.190000 -1.400000
v 0.160000 0.190000 0.600000
v 0.160000 0.610000 -1.400000
v 0.160000 0.610000 0.600000
usemtl c_2d2d32
f 9 10 12 11
f 13 15 16 14
f 9 13 14 10
f 11 12 16 15
f 9 11 15 13
f 10 14 16 12
o Barrel
v -0.070000 0.390000 -2.845000
v -0.070000 0.390000 -1.395000
v -0.070000 0.530000 -2.845000
v -0.070000 0.530000 -1.395000
v 0.070000 0.390000 -2.845000
v 0.070000 0.390000 -1.395000
v 0.070000 0.530000 -2.845000
v 0.070000 0.530000 -1.395000
usemtl c_141416
f 17 18 20 19
f 21 23 24 22
f 17 21 22 18
f 19 20 24 23
f 17 19 23 21
f 18 22 24 20
o Muzzle
v -0.100000 0.375000 -3.075000
v -0.100000 0.375000 -2.825000
v -0.100000 0.545000 -3.075000
v -0.100000 0.545000 -2.825000
v 0.100000 0.375000 -3.075000
v 0.100000 0.375000 -2.825000
v 0.100000 0.545000 -3.075000
v 0.100000 0.545000 -2.825000
usemtl c_141416
f 25 26 28 27
f 29 31 32 30
f 25 29 30 26
f 27 28 32 31
f 25 27 31 29
f 26 30 32 28
o Magazine
v -0.110000 -0.225000 -0.750000
v -0.110000 -0.225000 -0.450000
v -0.110000 0.225000 -0.750000
v -0.110000 0.225000 -0.450000
v 0.110000 -0.225000 -0.750000
v 0.110000 -0.225000 -0.450000
v 0.110000 0.225000 -0.750000
v 0.110000 0.225000 -0.450000
usemtl c_141416
f 33 34 36 35
f 37 39 40 38
f 33 37 38 34
f 35 36 40 39
f 33 35 39 37
f 34 38 40 36
o Skin_Stock
v -0.150000 0.100000 0.500000
v -0.150000 0.100000 1.500000
v -0.150000 0.600000 0.500000
v -0.150000 0.600000 1.500000
v 0.150000 0.100000 0.500000
v 0.150000 0.100000 1.500000
v 0.150000 0.600000 0.500000
v 0.150000 0.600000 1.500000
usemtl c_2d2d32
f 41 42 44 43
f 45 47 48 46
f 41 45 46 42
f 43 44 48 47
f 41 43 47 45
f 42 46 48 44
o Rail
v -0.070000 0.610000 -0.900000
v -0.070000 0.610000 0.200000
v -0.070000 0.660000 -0.900000
v -0.070000 0.660000 0.200000
v 0.070000 0.610000 -0.900000
v 0.070000 0.610000 0.200000
v 0.070000 0.660000 -0.900000
v 0.070000 0.660000 0.200000
usemtl c_464950
f 49 50 52 51
f 53 55 56 54
f 49 53 54 50
f 51 52 56 55
f 49 51 55 53
f 50 54 56 52
o Bolt
v 0.130000 0.470000 0.120000
v 0.130000 0.470000 0.180000
v 0.130000 0.530000 0.120000
v 0.130000 0.530000 0.180000
v 0.310000 0.470000 0.120000
v 0.310000 0.470000 0.180000
v 0.310000 0.530000 0.120000
v 0.310000 0.530000 0.180000
usemtl c_141416
f 57 58 60 59
f 61 63 64 62
f 57 61 62 58
f 59 60 64 63
f 57 59 63 61
f 58 62 64 60
o RearBase
v -0.075000 0.660000 0.090000
v -0.075000 0.660000 0.210000
v -0.075000 0.790000 0.090000
v -0.075000 0.790000 0.210000
v 0.075000 0.660000 0.090000
v 0.075000 0.660000 0.210000
v 0.075000 0.790000 0.090000
v 0.075000 0.790000 0.210000
usemtl c_141416
f 65 66 68 67
f 69 71 72 70
f 65 69 70 66
f 67 68 72 71
f 65 67 71 69
f 66 70 72 68
o RearL
v -0.090000 0.790000 0.125000
v -0.090000 0.790000 0.175000
v -0.090000 0.970000 0.125000
v -0.090000 0.970000 0.175000
v -0.030000 0.790000 0.125000
v -0.030000 0.790000 0.175000
v -0.030000 0.970000 0.125000
v -0.030000 0.970000 0.175000
usemtl c_141416
f 73 74 76 75
f 77 79 80 78
f 73 77 78 74
f 75 76 80 79
f 73 75 79 77
f 74 78 80 76
o RearR
v 0.030000 0.790000 0.125000
v 0.030000 0.790000 0.175000
v 0.030000 0.970000 0.125000
v 0.030000 0.970000 0.175000
v 0.090000 0.790000 0.125000
v 0.090000 0.790000 0.175000
v 0.090000 0.970000 0.125000
v 0.090000 0.970000 0.175000
usemtl c_141416
f 81 82 84 83
f 85 87 88 86
f 81 85 86 82
f 83 84 88 87
f 81 83 87 85
f 82 86 88 84
o RearT
v -0.030000 0.910000 0.125000
v -0.030000 0.910000 0.175000
v -0.030000 0.970000 0.125000
v -0.030000 0.970000 0.175000
v 0.030000 0.910000 0.125000
v 0.030000 0.910000 0.175000
v 0.030000 0.970000 0.125000
v 0.030000 0.970000 0.175000
usemtl c_141416
f 89 90 92 91
f 93 95 96 94
f 89 93 94 90
f 91 92 96 95
f 89 91 95 93
f 90 94 96 92
o RearB
v -0.030000 0.790000 0.125000
v -0.030000 0.790000 0.175000
v -0.030000 0.850000 0.125000
v -0.030000 0.850000 0.175000
v 0.030000 0.790000 0.125000
v 0.030000 0.790000 0.175000
v 0.030000 0.850000 0.125000
v 0.030000 0.850000 0.175000
usemtl c_141416
f 97 98 100 99
f 101 103 104 102
f 97 101 102 98
f 99 100 104 103
f 97 99 103 101
f 98 102 104 100
o FrontBase
v -0.055000 0.530000 -2.700000
v -0.055000 0.530000 -2.600000
v -0.055000 0.770000 -2.700000
v -0.055000 0.770000 -2.600000
v 0.055000 0.530000 -2.700000
v 0.055000 0.530000 -2.600000
v 0.055000 0.770000 -2.700000
v 0.055000 0.770000 -2.600000
usemtl c_141416
f 105 106 108 107
f 109 111 112 110
f 105 109 110 106
f 107 108 112 111
f 105 107 111 109
f 106 110 112 108
o FrontPost
v -0.014000 0.770000 -2.664000
v -0.014000 0.770000 -2.636000
v -0.014000 0.855000 -2.664000
v -0.014000 0.855000 -2.636000
v 0.014000 0.770000 -2.664000
v 0.014000 0.770000 -2.636000
v 0.014000 0.855000 -2.664000
v 0.014000 0.855000 -2.636000
usemtl c_141416
f 113 114 116 115
f 117 119 120 118
f 113 117 118 114
f 115 116 120 119
f 113 115 119 117
f 114 118 120 116
o Neon_FrontDot
v -0.015000 0.855000 -2.665000
v -0.015000 0.855000 -2.635000
v -0.015000 0.880000 -2.665000
v -0.015000 0.880000 -2.635000
v 0.015000 0.855000 -2.665000
v 0.015000 0.855000 -2.635000
v 0.015000 0.880000 -2.665000
v 0.015000 0.880000 -2.635000
usemtl c_ff7828
f 121 122 124 123
f 125 127 128 126
f 121 125 126 122
f 123 124 128 127
f 121 123 127 125
f 122 126 128 124
o HoodL
v -0.076000 0.770000 -2.690000
v -0.076000 0.770000 -2.610000
v -0.076000 0.930000 -2.690000
v -0.076000 0.930000 -2.610000
v -0.054000 0.770000 -2.690000
v -0.054000 0.770000 -2.610000
v -0.054000 0.930000 -2.690000
v -0.054000 0.930000 -2.610000
usemtl c_141416
f 129 130 132 131
f 133 135 136 134
f 129 133 134 130
f 131 132 136 135
f 129 131 135 133
f 130 134 136 132
o HoodR
v 0.054000 0.770000 -2.690000
v 0.054000 0.770000 -2.610000
v 0.054000 0.930000 -2.690000
v 0.054000 0.930000 -2.610000
v 0.076000 0.770000 -2.690000
v 0.076000 0.770000 -2.610000
v 0.076000 0.930000 -2.690000
v 0.076000 0.930000 -2.610000
usemtl c_141416
f 137 138 140 139
f 141 143 144 142
f 137 141 142 138
f 139 140 144 143
f 137 139 143 141
f 138 142 144 140
o HoodTop
v -0.076000 0.930000 -2.690000
v -0.076000 0.930000 -2.610000
v -0.076000 0.952000 -2.690000
v -0.076000 0.952000 -2.610000
v 0.076000 0.930000 -2.690000
v 0.076000 0.930000 -2.610000
v 0.076000 0.952000 -2.690000
v 0.076000 0.952000 -2.610000
usemtl c_141416
f 145 146 148 147
f 149 151 152 150
f 145 149 150 146
f 147 148 152 151
f 145 147 151 149
f 146 150 152 148
o Point_Grip
v -0.020000 -0.070000 0.030000
v -0.020000 -0.070000 0.070000
v -0.020000 -0.030000 0.030000
v -0.020000 -0.030000 0.070000
v 0.020000 -0.070000 0.030000
v 0.020000 -0.070000 0.070000
v 0.020000 -0.030000 0.030000
v 0.020000 -0.030000 0.070000
usemtl c_ff00ff
f 153 154 156 155
f 157 159 160 158
f 153 157 158 154
f 155 156 160 159
f 153 155 159 157
f 154 158 160 156
o Point_SightRear
v -0.020000 0.860000 0.130000
v -0.020000 0.860000 0.170000
v -0.020000 0.900000 0.130000
v -0.020000 0.900000 0.170000
v 0.020000 0.860000 0.130000
v 0.020000 0.860000 0.170000
v 0.020000 0.900000 0.130000
v 0.020000 0.900000 0.170000
usemtl c_ff00ff
f 161 162 164 163
f 165 167 168 166
f 161 165 166 162
f 163 164 168 167
f 161 163 167 165
f 162 166 168 164
o Point_SightFront
v -0.020000 0.860000 -2.670000
v -0.020000 0.860000 -2.630000
v -0.020000 0.900000 -2.670000
v -0.020000 0.900000 -2.630000
v 0.020000 0.860000 -2.670000
v 0.020000 0.860000 -2.630000
v 0.020000 0.900000 -2.670000
v 0.020000 0.900000 -2.630000
usemtl c_ff00ff
f 169 170 172 171
f 173 175 176 174
f 169 173 174 170
f 171 172 176 175
f 169 171 175 173
f 170 174 176 172
o Point_Muzzle
v -0.020000 0.440000 -3.095000
v -0.020000 0.440000 -3.055000
v -0.020000 0.480000 -3.095000
v -0.020000 0.480000 -3.055000
v 0.020000 0.440000 -3.095000
v 0.020000 0.440000 -3.055000
v 0.020000 0.480000 -3.095000
v 0.020000 0.480000 -3.055000
usemtl c_ff00ff
f 177 178 180 179
f 181 183 184 182
f 177 181 182 178
f 179 180 184 183
f 177 179 183 181
f 178 182 184 180
o Point_Eject
v 0.150000 0.460000 -0.270000
v 0.150000 0.460000 -0.230000
v 0.150000 0.500000 -0.270000
v 0.150000 0.500000 -0.230000
v 0.190000 0.460000 -0.270000
v 0.190000 0.460000 -0.230000
v 0.190000 0.500000 -0.270000
v 0.190000 0.500000 -0.230000
usemtl c_ff00ff
f 185 186 188 187
f 189 191 192 190
f 185 189 190 186
f 187 188 192 191
f 185 187 191 189
f 186 190 192 188
o Point_LeftHand
v -0.050000 0.160000 -1.220000
v -0.050000 0.160000 -1.180000
v -0.050000 0.200000 -1.220000
v -0.050000 0.200000 -1.180000
v -0.010000 0.160000 -1.220000
v -0.010000 0.160000 -1.180000
v -0.010000 0.200000 -1.220000
v -0.010000 0.200000 -1.180000
usemtl c_ff00ff
f 193 194 196 195
f 197 199 200 198
f 193 197 198 194
f 195 196 200 199
f 193 195 199 197
f 194 198 200 196
o Point_Stock
v -0.020000 0.330000 1.480000
v -0.020000 0.330000 1.520000
v -0.020000 0.370000 1.480000
v -0.020000 0.370000 1.520000
v 0.020000 0.330000 1.480000
v 0.020000 0.330000 1.520000
v 0.020000 0.370000 1.480000
v 0.020000 0.370000 1.520000
usemtl c_ff00ff
f 201 202 204 203
f 205 207 208 206
f 201 205 206 202
f 203 204 208 207
f 201 203 207 205
f 202 206 208 204
o Pivot_Bolt
v 0.190000 0.470000 0.120000
v 0.190000 0.470000 0.180000
v 0.190000 0.530000 0.120000
v 0.190000 0.530000 0.180000
v 0.250000 0.470000 0.120000
v 0.250000 0.470000 0.180000
v 0.250000 0.530000 0.120000
v 0.250000 0.530000 0.180000
usemtl c_00dcff
f 209 210 212 211
f 213 215 216 214
f 209 213 214 210
f 211 212 216 215
f 209 211 215 213
f 210 214 216 212
o Pivot_Magazine
v -0.030000 -0.030000 -0.630000
v -0.030000 -0.030000 -0.570000
v -0.030000 0.030000 -0.630000
v -0.030000 0.030000 -0.570000
v 0.030000 -0.030000 -0.630000
v 0.030000 -0.030000 -0.570000
v 0.030000 0.030000 -0.630000
v 0.030000 0.030000 -0.570000
usemtl c_00dcff
f 217 218 220 219
f 221 223 224 222
f 217 221 222 218
f 219 220 224 223
f 217 219 223 221
f 218 222 224 220
