# Vorlage Revolver – 1 Einheit = 1 Stud, Lauf zeigt nach -Z (Roblox).
# Spezifikation: docs/waffen-modelle.md
mtllib Revolver.mtl
o Grip
v -0.110000 -0.329719 0.013102
v -0.110000 -0.227113 0.295009
v -0.110000 0.187113 -0.175009
v -0.110000 0.289719 0.106898
v 0.110000 -0.329719 0.013102
v 0.110000 -0.227113 0.295009
v 0.110000 0.187113 -0.175009
v 0.110000 0.289719 0.106898
usemtl c_6e4b2d
f 1 2 4 3
f 5 7 8 6
f 1 5 6 2
f 3 4 8 7
f 1 3 7 5
f 2 6 8 4
o Skin_Frame
v -0.125000 0.230000 -0.450000
v -0.125000 0.230000 0.150000
v -0.125000 0.530000 -0.450000
v -0.125000 0.530000 0.150000
v 0.125000 0.230000 -0.450000
v 0.125000 0.230000 0.150000
v 0.125000 0.530000 -0.450000
v 0.125000 0.530000 0.150000
usemtl c_2d2d32
f 9 10 12 11
f 13 15 16 14
f 9 13 14 10
f 11 12 16 15
f 9 11 15 13
f 10 14 16 12
o Skin_Cylinder
v 0.000000 0.540000 -0.075000
v 0.061229 0.527821 -0.075000
v 0.113137 0.493137 -0.075000
v 0.147821 0.441229 -0.075000
v 0.160000 0.380000 -0.075000
v 0.147821 0.318771 -0.075000
v 0.113137 0.266863 -0.075000
v 0.061229 0.232179 -0.075000
v 0.000000 0.220000 -0.075000
v -0.061229 0.232179 -0.075000
v -0.113137 0.266863 -0.075000
v -0.147821 0.318771 -0.075000
v -0.160000 0.380000 -0.075000
v -0.147821 0.441229 -0.075000
v -0.113137 0.493137 -0.075000
v -0.061229 0.527821 -0.075000
v 0.000000 0.540000 -0.425000
v 0.061229 0.527821 -0.425000
v 0.113137 0.493137 -0.425000
v 0.147821 0.441229 -0.425000
v 0.160000 0.380000 -0.425000
v 0.147821 0.318771 -0.425000
v 0.113137 0.266863 -0.425000
v 0.061229 0.232179 -0.425000
v 0.000000 0.220000 -0.425000
v -0.061229 0.232179 -0.425000
v -0.113137 0.266863 -0.425000
v -0.147821 0.318771 -0.425000
v -0.160000 0.380000 -0.425000
v -0.147821 0.441229 -0.425000
v -0.113137 0.493137 -0.425000
v -0.061229 0.527821 -0.425000
usemtl c_2d2d32
f 17 18 34 33
f 18 19 35 34
f 19 20 36 35
f 20 21 37 36
f 21 22 38 37
f 22 23 39 38
f 23 24 40 39
f 24 25 41 40
f 25 26 42 41
f 26 27 43 42
f 27 28 44 43
f 28 29 45 44
f 29 30 46 45
f 30 31 47 46
f 31 32 48 47
f 32 17 33 48
f 32 31 30 29 28 27 26 25 24 23 22 21 20 19 18 17
f 33 34 35 36 37 38 39 40 41 42 43 44 45 46 47 48
o Barrel
v -0.070000 0.360000 -1.175000
v -0.070000 0.360000 -0.425000
v -0.070000 0.500000 -1.175000
v -0.070000 0.500000 -0.425000
v 0.070000 0.360000 -1.175000
v 0.070000 0.360000 -0.425000
v 0.070000 0.500000 -1.175000
v 0.070000 0.500000 -0.425000
usemtl c_141416
f 49 50 52 51
f 53 55 56 54
f 49 53 54 50
f 51 52 56 55
f 49 51 55 53
f 50 54 56 52
o Lug
v -0.060000 0.270000 -1.050000
v -0.060000 0.270000 -0.450000
v -0.060000 0.370000 -1.050000
v -0.060000 0.370000 -0.450000
v 0.060000 0.270000 -1.050000
v 0.060000 0.270000 -0.450000
v 0.060000 0.370000 -1.050000
v 0.060000 0.370000 -0.450000
usemtl c_2d2d32
f 57 58 60 59
f 61 63 64 62
f 57 61 62 58
f 59 60 64 63
f 57 59 63 61
f 58 62 64 60
o Hammer
v -0.030000 0.450000 0.100000
v -0.030000 0.450000 0.200000
v -0.030000 0.550000 0.100000
v -0.030000 0.550000 0.200000
v 0.030000 0.450000 0.100000
v 0.030000 0.450000 0.200000
v 0.030000 0.550000 0.100000
v 0.030000 0.550000 0.200000
usemtl c_141416
f 65 66 68 67
f 69 71 72 70
f 65 69 70 66
f 67 68 72 71
f 65 67 71 69
f 66 70 72 68
o RearL
v -0.085000 0.530000 0.050000
v -0.085000 0.530000 0.110000
v -0.085000 0.600000 0.050000
v -0.085000 0.600000 0.110000
v -0.025000 0.530000 0.050000
v -0.025000 0.530000 0.110000
v -0.025000 0.600000 0.050000
v -0.025000 0.600000 0.110000
usemtl c_141416
f 73 74 76 75
f 77 79 80 78
f 73 77 78 74
f 75 76 80 79
f 73 75 79 77
f 74 78 80 76
o RearR
v 0.025000 0.530000 0.050000
v 0.025000 0.530000 0.110000
v 0.025000 0.600000 0.050000
v 0.025000 0.600000 0.110000
v 0.085000 0.530000 0.050000
v 0.085000 0.530000 0.110000
v 0.085000 0.600000 0.050000
v 0.085000 0.600000 0.110000
usemtl c_141416
f 81 82 84 83
f 85 87 88 86
f 81 85 86 82
f 83 84 88 87
f 81 83 87 85
f 82 86 88 84
o FrontPost
v -0.017500 0.500000 -1.160000
v -0.017500 0.500000 -1.040000
v -0.017500 0.575000 -1.160000
v -0.017500 0.575000 -1.040000
v 0.017500 0.500000 -1.160000
v 0.017500 0.500000 -1.040000
v 0.017500 0.575000 -1.160000
v 0.017500 0.575000 -1.040000
usemtl c_141416
f 89 90 92 91
f 93 95 96 94
f 89 93 94 90
f 91 92 96 95
f 89 91 95 93
f 90 94 96 92
o Neon_FrontDot
v -0.018500 0.575000 -1.110000
v -0.018500 0.575000 -1.050000
v -0.018500 0.600000 -1.110000
v -0.018500 0.600000 -1.050000
v 0.018500 0.575000 -1.110000
v 0.018500 0.575000 -1.050000
v 0.018500 0.600000 -1.110000
v 0.018500 0.600000 -1.050000
usemtl c_ff7828
f 97 98 100 99
f 101 103 104 102
f 97 101 102 98
f 99 100 104 103
f 97 99 103 101
f 98 102 104 100
o Loader
v -0.280000 0.430000 0.045000
v -0.222597 0.418582 0.045000
v -0.173934 0.386066 0.045000
v -0.141418 0.337403 0.045000
v -0.130000 0.280000 0.045000
v -0.141418 0.222597 0.045000
v -0.173934 0.173934 0.045000
v -0.222597 0.141418 0.045000
v -0.280000 0.130000 0.045000
v -0.337403 0.141418 0.045000
v -0.386066 0.173934 0.045000
v -0.418582 0.222597 0.045000
v -0.430000 0.280000 0.045000
v -0.418582 0.337403 0.045000
v -0.386066 0.386066 0.045000
v -0.337403 0.418582 0.045000
v -0.280000 0.430000 -0.075000
v -0.222597 0.418582 -0.075000
v -0.173934 0.386066 -0.075000
v -0.141418 0.337403 -0.075000
v -0.130000 0.280000 -0.075000
v -0.141418 0.222597 -0.075000
v -0.173934 0.173934 -0.075000
v -0.222597 0.141418 -0.075000
v -0.280000 0.130000 -0.075000
v -0.337403 0.141418 -0.075000
v -0.386066 0.173934 -0.075000
v -0.418582 0.222597 -0.075000
v -0.430000 0.280000 -0.075000
v -0.418582 0.337403 -0.075000
v -0.386066 0.386066 -0.075000
v -0.337403 0.418582 -0.075000
usemtl c_141416
f 105 106 122 121
f 106 107 123 122
f 107 108 124 123
f 108 109 125 124
f 109 110 126 125
f 110 111 127 126
f 111 112 128 127
f 112 113 129 128
f 113 114 130 129
f 114 115 131 130
f 115 116 132 131
f 116 117 133 132
f 117 118 134 133
f 118 119 135 134
f 119 120 136 135
f 120 105 121 136
f 120 119 118 117 116 115 114 113 112 111 110 109 108 107 106 105
f 121 122 123 124 125 126 127 128 129 130 131 132 133 134 135 136
o Point_Grip
v -0.020000 -0.040000 0.040000
v -0.020000 -0.040000 0.080000
v -0.020000 0.000000 0.040000
v -0.020000 0.000000 0.080000
v 0.020000 -0.040000 0.040000
v 0.020000 -0.040000 0.080000
v 0.020000 0.000000 0.040000
v 0.020000 0.000000 0.080000
usemtl c_ff00ff
f 137 138 140 139
f 141 143 144 142
f 137 141 142 138
f 139 140 144 143
f 137 139 143 141
f 138 142 144 140
o Point_SightRear
v -0.020000 0.580000 0.060000
v -0.020000 0.580000 0.100000
v -0.020000 0.620000 0.060000
v -0.020000 0.620000 0.100000
v 0.020000 0.580000 0.060000
v 0.020000 0.580000 0.100000
v 0.020000 0.620000 0.060000
v 0.020000 0.620000 0.100000
usemtl c_ff00ff
f 145 146 148 147
f 149 151 152 150
f 145 149 150 146
f 147 148 152 151
f 145 147 151 149
f 146 150 152 148
o Point_SightFront
v -0.020000 0.580000 -1.100000
v -0.020000 0.580000 -1.060000
v -0.020000 0.620000 -1.100000
v -0.020000 0.620000 -1.060000
v 0.020000 0.580000 -1.100000
v 0.020000 0.580000 -1.060000
v 0.020000 0.620000 -1.100000
v 0.020000 0.620000 -1.060000
usemtl c_ff00ff
f 153 154 156 155
f 157 159 160 158
f 153 157 158 154
f 155 156 160 159
f 153 155 159 157
f 154 158 160 156
o Point_Muzzle
v -0.020000 0.410000 -1.195000
v -0.020000 0.410000 -1.155000
v -0.020000 0.450000 -1.195000
v -0.020000 0.450000 -1.155000
v 0.020000 0.410000 -1.195000
v 0.020000 0.410000 -1.155000
v 0.020000 0.450000 -1.195000
v 0.020000 0.450000 -1.155000
usemtl c_ff00ff
f 161 162 164 163
f 165 167 168 166
f 161 165 166 162
f 163 164 168 167
f 161 163 167 165
f 162 166 168 164
o Point_Eject
v -0.020000 0.360000 -0.270000
v -0.020000 0.360000 -0.230000
v -0.020000 0.400000 -0.270000
v -0.020000 0.400000 -0.230000
v 0.020000 0.360000 -0.270000
v 0.020000 0.360000 -0.230000
v 0.020000 0.400000 -0.270000
v 0.020000 0.400000 -0.230000
usemtl c_ff00ff
f 169 170 172 171
f 173 175 176 174
f 169 173 174 170
f 171 172 176 175
f 169 171 175 173
f 170 174 176 172
o Point_LeftHand
v -0.140000 -0.120000 0.010000
v -0.140000 -0.120000 0.050000
v -0.140000 -0.080000 0.010000
v -0.140000 -0.080000 0.050000
v -0.100000 -0.120000 0.010000
v -0.100000 -0.120000 0.050000
v -0.100000 -0.080000 0.010000
v -0.100000 -0.080000 0.050000
usemtl c_ff00ff
f 177 178 180 179
f 181 183 184 182
f 177 181 182 178
f 179 180 184 183
f 177 179 183 181
f 178 182 184 180
o Pivot_Hammer
v -0.030000 0.470000 0.120000
v -0.030000 0.470000 0.180000
v -0.030000 0.530000 0.120000
v -0.030000 0.530000 0.180000
v 0.030000 0.470000 0.120000
v 0.030000 0.470000 0.180000
v 0.030000 0.530000 0.120000
v 0.030000 0.530000 0.180000
usemtl c_00dcff
f 185 186 188 187
f 189 191 192 190
f 185 189 190 186
f 187 188 192 191
f 185 187 191 189
f 186 190 192 188
o Pivot_Cylinder
v -0.030000 0.350000 -0.280000
v -0.030000 0.350000 -0.220000
v -0.030000 0.410000 -0.280000
v -0.030000 0.410000 -0.220000
v 0.030000 0.350000 -0.280000
v 0.030000 0.350000 -0.220000
v 0.030000 0.410000 -0.280000
v 0.030000 0.410000 -0.220000
usemtl c_00dcff
f 193 194 196 195
f 197 199 200 198
f 193 197 198 194
f 195 196 200 199
f 193 195 199 197
f 194 198 200 196
o Pivot_Loader
v -0.310000 0.250000 -0.045000
v -0.310000 0.250000 0.015000
v -0.310000 0.310000 -0.045000
v -0.310000 0.310000 0.015000
v -0.250000 0.250000 -0.045000
v -0.250000 0.250000 0.015000
v -0.250000 0.310000 -0.045000
v -0.250000 0.310000 0.015000
usemtl c_00dcff
f 201 202 204 203
f 205 207 208 206
f 201 205 206 202
f 203 204 208 207
f 201 203 207 205
f 202 206 208 204
