# Vorlage Rifle – 1 Einheit = 1 Stud, Lauf zeigt nach -Z (Roblox).
# Spezifikation: docs/waffen-modelle.md
mtllib Rifle.mtl
o Grip
v -0.120000 -0.354453 -0.023714
v -0.120000 -0.276807 0.266064
v -0.120000 0.176807 -0.166064
v -0.120000 0.254453 0.123714
v 0.120000 -0.354453 -0.023714
v 0.120000 -0.276807 0.266064
v 0.120000 0.176807 -0.166064
v 0.120000 0.254453 0.123714
usemtl c_141416
f 1 2 4 3
f 5 7 8 6
f 1 5 6 2
f 3 4 8 7
f 1 3 7 5
f 2 6 8 4
o Skin_Body
v -0.175000 0.175000 -1.250000
v -0.175000 0.175000 0.550000
v -0.175000 0.625000 -1.250000
v -0.175000 0.625000 0.550000
v 0.175000 0.175000 -1.250000
v 0.175000 0.175000 0.550000
v 0.175000 0.625000 -1.250000
v 0.175000 0.625000 0.550000
usemtl c_2d2d32
f 9 10 12 11
f 13 15 16 14
f 9 13 14 10
f 11 12 16 15
f 9 11 15 13
f 10 14 16 12
o Skin_Handguard
v -0.150000 0.280000 -1.975000
v -0.150000 0.280000 -1.225000
v -0.150000 0.600000 -1.975000
v -0.150000 0.600000 -1.225000
v 0.150000 0.280000 -1.975000
v 0.150000 0.280000 -1.225000
v 0.150000 0.600000 -1.975000
v 0.150000 0.600000 -1.225000
usemtl c_2d2d32
f 17 18 20 19
f 21 23 24 22
f 17 21 22 18
f 19 20 24 23
f 17 19 23 21
f 18 22 24 20
o Barrel
v -0.070000 0.410000 -2.550000
v -0.070000 0.410000 -1.950000
v -0.070000 0.550000 -2.550000
v -0.070000 0.550000 -1.950000
v 0.070000 0.410000 -2.550000
v 0.070000 0.410000 -1.950000
v 0.070000 0.550000 -2.550000
v 0.070000 0.550000 -1.950000
usemtl c_141416
f 25 26 28 27
f 29 31 32 30
f 25 29 30 26
f 27 28 32 31
f 25 27 31 29
f 26 30 32 28
o Muzzle
v -0.090000 0.390000 -2.730000
v -0.090000 0.390000 -2.510000
v -0.090000 0.570000 -2.730000
v -0.090000 0.570000 -2.510000
v 0.090000 0.390000 -2.730000
v 0.090000 0.390000 -2.510000
v 0.090000 0.570000 -2.730000
v 0.090000 0.570000 -2.510000
usemtl c_141416
f 33 34 36 35
f 37 39 40 38
f 33 37 38 34
f 35 36 40 39
f 33 35 39 37
f 34 38 40 36
o Skin_Stock
v -0.150000 0.100000 0.500000
v -0.150000 0.100000 1.400000
v -0.150000 0.600000 0.500000
v -0.150000 0.600000 1.400000
v 0.150000 0.100000 0.500000
v 0.150000 0.100000 1.400000
v 0.150000 0.600000 0.500000
v 0.150000 0.600000 1.400000
usemtl c_6e4b2d
f 41 42 44 43
f 45 47 48 46
f 41 45 46 42
f 43 44 48 47
f 41 43 47 45
f 42 46 48 44
o Magazine
v -0.120000 -0.355770 -0.871248
v -0.120000 -0.414811 -0.536414
v -0.120000 0.254811 -0.763586
v -0.120000 0.195770 -0.428752
v 0.120000 -0.355770 -0.871248
v 0.120000 -0.414811 -0.536414
v 0.120000 0.254811 -0.763586
v 0.120000 0.195770 -0.428752
usemtl c_141416
f 49 50 52 51
f 53 55 56 54
f 49 53 54 50
f 51 52 56 55
f 49 51 55 53
f 50 54 56 52
o Rail
v -0.080000 0.625000 -1.075000
v -0.080000 0.625000 0.175000
v -0.080000 0.675000 -1.075000
v -0.080000 0.675000 0.175000
v 0.080000 0.625000 -1.075000
v 0.080000 0.625000 0.175000
v 0.080000 0.675000 -1.075000
v 0.080000 0.675000 0.175000
usemtl c_464950
f 57 58 60 59
f 61 63 64 62
f 57 61 62 58
f 59 60 64 63
f 57 59 63 61
f 58 62 64 60
o Bolt
v -0.110000 0.570000 0.550000
v -0.110000 0.570000 0.650000
v -0.110000 0.630000 0.550000
v -0.110000 0.630000 0.650000
v 0.110000 0.570000 0.550000
v 0.110000 0.570000 0.650000
v 0.110000 0.630000 0.550000
v 0.110000 0.630000 0.650000
usemtl c_141416
f 65 66 68 67
f 69 71 72 70
f 65 69 70 66
f 67 68 72 71
f 65 67 71 69
f 66 70 72 68
o DotMount
v -0.100000 0.675000 -0.400000
v -0.100000 0.675000 0.060000
v -0.100000 0.735000 -0.400000
v -0.100000 0.735000 0.060000
v 0.100000 0.675000 -0.400000
v 0.100000 0.675000 0.060000
v 0.100000 0.735000 -0.400000
v 0.100000 0.735000 0.060000
usemtl c_1e1f23
f 73 74 76 75
f 77 79 80 78
f 73 77 78 74
f 75 76 80 79
f 73 75 79 77
f 74 78 80 76
o DotScrewA
v -0.140000 0.735000 -0.060000
v -0.140000 0.732716 -0.048519
v -0.140000 0.726213 -0.038787
v -0.140000 0.716481 -0.032284
v -0.140000 0.705000 -0.030000
v -0.140000 0.693519 -0.032284
v -0.140000 0.683787 -0.038787
v -0.140000 0.677284 -0.048519
v -0.140000 0.675000 -0.060000
v -0.140000 0.677284 -0.071481
v -0.140000 0.683787 -0.081213
v -0.140000 0.693519 -0.087716
v -0.140000 0.705000 -0.090000
v -0.140000 0.716481 -0.087716
v -0.140000 0.726213 -0.081213
v -0.140000 0.732716 -0.071481
v -0.100000 0.735000 -0.060000
v -0.100000 0.732716 -0.048519
v -0.100000 0.726213 -0.038787
v -0.100000 0.716481 -0.032284
v -0.100000 0.705000 -0.030000
v -0.100000 0.693519 -0.032284
v -0.100000 0.683787 -0.038787
v -0.100000 0.677284 -0.048519
v -0.100000 0.675000 -0.060000
v -0.100000 0.677284 -0.071481
v -0.100000 0.683787 -0.081213
v -0.100000 0.693519 -0.087716
v -0.100000 0.705000 -0.090000
v -0.100000 0.716481 -0.087716
v -0.100000 0.726213 -0.081213
v -0.100000 0.732716 -0.071481
usemtl c_141416
f 81 82 98 97
f 82 83 99 98
f 83 84 100 99
f 84 85 101 100
f 85 86 102 101
f 86 87 103 102
f 87 88 104 103
f 88 89 105 104
f 89 90 106 105
f 90 91 107 106
f 91 92 108 107
f 92 93 109 108
f 93 94 110 109
f 94 95 111 110
f 95 96 112 111
f 96 81 97 112
f 96 95 94 93 92 91 90 89 88 87 86 85 84 83 82 81
f 97 98 99 100 101 102 103 104 105 106 107 108 109 110 111 112
o DotScrewB
v -0.140000 0.735000 -0.300000
v -0.140000 0.732716 -0.288519
v -0.140000 0.726213 -0.278787
v -0.140000 0.716481 -0.272284
v -0.140000 0.705000 -0.270000
v -0.140000 0.693519 -0.272284
v -0.140000 0.683787 -0.278787
v -0.140000 0.677284 -0.288519
v -0.140000 0.675000 -0.300000
v -0.140000 0.677284 -0.311481
v -0.140000 0.683787 -0.321213
v -0.140000 0.693519 -0.327716
v -0.140000 0.705000 -0.330000
v -0.140000 0.716481 -0.327716
v -0.140000 0.726213 -0.321213
v -0.140000 0.732716 -0.311481
v -0.100000 0.735000 -0.300000
v -0.100000 0.732716 -0.288519
v -0.100000 0.726213 -0.278787
v -0.100000 0.716481 -0.272284
v -0.100000 0.705000 -0.270000
v -0.100000 0.693519 -0.272284
v -0.100000 0.683787 -0.278787
v -0.100000 0.677284 -0.288519
v -0.100000 0.675000 -0.300000
v -0.100000 0.677284 -0.311481
v -0.100000 0.683787 -0.321213
v -0.100000 0.693519 -0.327716
v -0.100000 0.705000 -0.330000
v -0.100000 0.716481 -0.327716
v -0.100000 0.726213 -0.321213
v -0.100000 0.732716 -0.311481
usemtl c_141416
f 113 114 130 129
f 114 115 131 130
f 115 116 132 131
f 116 117 133 132
f 117 118 134 133
f 118 119 135 134
f 119 120 136 135
f 120 121 137 136
f 121 122 138 137
f 122 123 139 138
f 123 124 140 139
f 124 125 141 140
f 125 126 142 141
f 126 127 143 142
f 127 128 144 143
f 128 113 129 144
f 128 127 126 125 124 123 122 121 120 119 118 117 116 115 114 113
f 129 130 131 132 133 134 135 136 137 138 139 140 141 142 143 144
o DotBody
v -0.100000 0.735000 -0.300000
v -0.100000 0.735000 0.040000
v -0.100000 0.810000 -0.300000
v -0.100000 0.810000 0.040000
v 0.100000 0.735000 -0.300000
v 0.100000 0.735000 0.040000
v 0.100000 0.810000 -0.300000
v 0.100000 0.810000 0.040000
usemtl c_1e1f23
f 145 146 148 147
f 149 151 152 150
f 145 149 150 146
f 147 148 152 151
f 145 147 151 149
f 146 150 152 148
o DotDial
v -0.150000 0.820000 -0.140000
v -0.150000 0.816194 -0.120866
v -0.150000 0.805355 -0.104645
v -0.150000 0.789134 -0.093806
v -0.150000 0.770000 -0.090000
v -0.150000 0.750866 -0.093806
v -0.150000 0.734645 -0.104645
v -0.150000 0.723806 -0.120866
v -0.150000 0.720000 -0.140000
v -0.150000 0.723806 -0.159134
v -0.150000 0.734645 -0.175355
v -0.150000 0.750866 -0.186194
v -0.150000 0.770000 -0.190000
v -0.150000 0.789134 -0.186194
v -0.150000 0.805355 -0.175355
v -0.150000 0.816194 -0.159134
v -0.100000 0.820000 -0.140000
v -0.100000 0.816194 -0.120866
v -0.100000 0.805355 -0.104645
v -0.100000 0.789134 -0.093806
v -0.100000 0.770000 -0.090000
v -0.100000 0.750866 -0.093806
v -0.100000 0.734645 -0.104645
v -0.100000 0.723806 -0.120866
v -0.100000 0.720000 -0.140000
v -0.100000 0.723806 -0.159134
v -0.100000 0.734645 -0.175355
v -0.100000 0.750866 -0.186194
v -0.100000 0.770000 -0.190000
v -0.100000 0.789134 -0.186194
v -0.100000 0.805355 -0.175355
v -0.100000 0.816194 -0.159134
usemtl c_141416
f 153 154 170 169
f 154 155 171 170
f 155 156 172 171
f 156 157 173 172
f 157 158 174 173
f 158 159 175 174
f 159 160 176 175
f 160 161 177 176
f 161 162 178 177
f 162 163 179 178
f 163 164 180 179
f 164 165 181 180
f 165 166 182 181
f 166 167 183 182
f 167 168 184 183
f 168 153 169 184
f 168 167 166 165 164 163 162 161 160 159 158 157 156 155 154 153
f 169 170 171 172 173 174 175 176 177 178 179 180 181 182 183 184
o DotDialMark
v -0.152000 0.792000 -0.155000
v -0.152000 0.792000 -0.125000
v -0.152000 0.808000 -0.155000
v -0.152000 0.808000 -0.125000
v -0.100000 0.792000 -0.155000
v -0.100000 0.792000 -0.125000
v -0.100000 0.808000 -0.155000
v -0.100000 0.808000 -0.125000
usemtl c_ff2323
f 185 186 188 187
f 189 191 192 190
f 185 189 190 186
f 187 188 192 191
f 185 187 191 189
f 186 190 192 188
o DotHoodBase
v -0.165000 0.765000 -0.420000
v -0.165000 0.765000 -0.300000
v -0.165000 0.815000 -0.420000
v -0.165000 0.815000 -0.300000
v 0.165000 0.765000 -0.420000
v 0.165000 0.765000 -0.300000
v 0.165000 0.815000 -0.420000
v 0.165000 0.815000 -0.300000
usemtl c_1e1f23
f 193 194 196 195
f 197 199 200 198
f 193 197 198 194
f 195 196 200 199
f 193 195 199 197
f 194 198 200 196
o DotHoodL
v -0.165000 0.795000 -0.390000
v -0.165000 0.795000 -0.330000
v -0.165000 1.045000 -0.390000
v -0.165000 1.045000 -0.330000
v -0.130000 0.795000 -0.390000
v -0.130000 0.795000 -0.330000
v -0.130000 1.045000 -0.390000
v -0.130000 1.045000 -0.330000
usemtl c_1e1f23
f 201 202 204 203
f 205 207 208 206
f 201 205 206 202
f 203 204 208 207
f 201 203 207 205
f 202 206 208 204
o DotHoodR
v 0.130000 0.795000 -0.390000
v 0.130000 0.795000 -0.330000
v 0.130000 1.045000 -0.390000
v 0.130000 1.045000 -0.330000
v 0.165000 0.795000 -0.390000
v 0.165000 0.795000 -0.330000
v 0.165000 1.045000 -0.390000
v 0.165000 1.045000 -0.330000
usemtl c_1e1f23
f 209 210 212 211
f 213 215 216 214
f 209 213 214 210
f 211 212 216 215
f 209 211 215 213
f 210 214 216 212
o DotHoodTop
v -0.165000 1.025000 -0.390000
v -0.165000 1.025000 -0.330000
v -0.165000 1.060000 -0.390000
v -0.165000 1.060000 -0.330000
v 0.165000 1.025000 -0.390000
v 0.165000 1.025000 -0.330000
v 0.165000 1.060000 -0.390000
v 0.165000 1.060000 -0.330000
usemtl c_1e1f23
f 217 218 220 219
f 221 223 224 222
f 217 221 222 218
f 219 220 224 223
f 217 219 223 221
f 218 222 224 220
o DotHoodCornerL
v -0.159123 0.993626 -0.390000
v -0.159123 0.993626 -0.330000
v -0.109626 1.043123 -0.390000
v -0.109626 1.043123 -0.330000
v -0.134374 0.968877 -0.390000
v -0.134374 0.968877 -0.330000
v -0.084877 1.018374 -0.390000
v -0.084877 1.018374 -0.330000
usemtl c_1e1f23
f 225 226 228 227
f 229 231 232 230
f 225 229 230 226
f 227 228 232 231
f 225 227 231 229
f 226 230 232 228
o DotHoodCornerR
v 0.134374 0.968877 -0.390000
v 0.134374 0.968877 -0.330000
v 0.084877 1.018374 -0.390000
v 0.084877 1.018374 -0.330000
v 0.159123 0.993626 -0.390000
v 0.159123 0.993626 -0.330000
v 0.109626 1.043123 -0.390000
v 0.109626 1.043123 -0.330000
usemtl c_1e1f23
f 233 234 236 235
f 237 239 240 238
f 233 237 238 234
f 235 236 240 239
f 233 235 239 237
f 234 238 240 236
o Glass_DotGlass
v -0.130000 0.815000 -0.364000
v -0.130000 0.815000 -0.356000
v -0.130000 1.025000 -0.364000
v -0.130000 1.025000 -0.356000
v 0.130000 0.815000 -0.364000
v 0.130000 0.815000 -0.356000
v 0.130000 1.025000 -0.364000
v 0.130000 1.025000 -0.356000
usemtl c_78c8d7_glass
f 241 242 244 243
f 245 247 248 246
f 241 245 246 242
f 243 244 248 247
f 241 243 247 245
f 242 246 248 244
o Reticle
v 0.000000 0.925000 -0.352000
v 0.002500 0.924330 -0.352000
v 0.002165 0.924330 -0.350750
v 0.001250 0.924330 -0.349835
v 0.000000 0.924330 -0.349500
v -0.001250 0.924330 -0.349835
v -0.002165 0.924330 -0.350750
v -0.002500 0.924330 -0.352000
v -0.002165 0.924330 -0.353250
v -0.001250 0.924330 -0.354165
v -0.000000 0.924330 -0.354500
v 0.001250 0.924330 -0.354165
v 0.002165 0.924330 -0.353250
v 0.004330 0.922500 -0.352000
v 0.003750 0.922500 -0.349835
v 0.002165 0.922500 -0.348250
v 0.000000 0.922500 -0.347670
v -0.002165 0.922500 -0.348250
v -0.003750 0.922500 -0.349835
v -0.004330 0.922500 -0.352000
v -0.003750 0.922500 -0.354165
v -0.002165 0.922500 -0.355750
v -0.000000 0.922500 -0.356330
v 0.002165 0.922500 -0.355750
v 0.003750 0.922500 -0.354165
v 0.005000 0.920000 -0.352000
v 0.004330 0.920000 -0.349500
v 0.002500 0.920000 -0.347670
v 0.000000 0.920000 -0.347000
v -0.002500 0.920000 -0.347670
v -0.004330 0.920000 -0.349500
v -0.005000 0.920000 -0.352000
v -0.004330 0.920000 -0.354500
v -0.002500 0.920000 -0.356330
v -0.000000 0.920000 -0.357000
v 0.002500 0.920000 -0.356330
v 0.004330 0.920000 -0.354500
v 0.004330 0.917500 -0.352000
v 0.003750 0.917500 -0.349835
v 0.002165 0.917500 -0.348250
v 0.000000 0.917500 -0.347670
v -0.002165 0.917500 -0.348250
v -0.003750 0.917500 -0.349835
v -0.004330 0.917500 -0.352000
v -0.003750 0.917500 -0.354165
v -0.002165 0.917500 -0.355750
v -0.000000 0.917500 -0.356330
v 0.002165 0.917500 -0.355750
v 0.003750 0.917500 -0.354165
v 0.002500 0.915670 -0.352000
v 0.002165 0.915670 -0.350750
v 0.001250 0.915670 -0.349835
v 0.000000 0.915670 -0.349500
v -0.001250 0.915670 -0.349835
v -0.002165 0.915670 -0.350750
v -0.002500 0.915670 -0.352000
v -0.002165 0.915670 -0.353250
v -0.001250 0.915670 -0.354165
v -0.000000 0.915670 -0.354500
v 0.001250 0.915670 -0.354165
v 0.002165 0.915670 -0.353250
v 0.000000 0.915000 -0.352000
usemtl c_ff2323
f 251 250 249
f 252 251 249
f 253 252 249
f 254 253 249
f 255 254 249
f 256 255 249
f 257 256 249
f 258 257 249
f 259 258 249
f 260 259 249
f 261 260 249
f 250 261 249
f 251 263 262 250
f 252 264 263 251
f 253 265 264 252
f 254 266 265 253
f 255 267 266 254
f 256 268 267 255
f 257 269 268 256
f 258 270 269 257
f 259 271 270 258
f 260 272 271 259
f 261 273 272 260
f 250 262 273 261
f 263 275 274 262
f 264 276 275 263
f 265 277 276 264
f 266 278 277 265
f 267 279 278 266
f 268 280 279 267
f 269 281 280 268
f 270 282 281 269
f 271 283 282 270
f 272 284 283 271
f 273 285 284 272
f 262 274 285 273
f 275 287 286 274
f 276 288 287 275
f 277 289 288 276
f 278 290 289 277
f 279 291 290 278
f 280 292 291 279
f 281 293 292 280
f 282 294 293 281
f 283 295 294 282
f 284 296 295 283
f 285 297 296 284
f 274 286 297 285
f 287 299 298 286
f 288 300 299 287
f 289 301 300 288
f 290 302 301 289
f 291 303 302 290
f 292 304 303 291
f 293 305 304 292
f 294 306 305 293
f 295 307 306 294
f 296 308 307 295
f 297 309 308 296
f 286 298 309 297
f 299 310 298
f 300 310 299
f 301 310 300
f 302 310 301
f 303 310 302
f 304 310 303
f 305 310 304
f 306 310 305
f 307 310 306
f 308 310 307
f 309 310 308
f 298 310 309
o Point_Grip
v -0.020000 -0.070000 0.030000
v -0.020000 -0.070000 0.070000
v -0.020000 -0.030000 0.030000
v -0.020000 -0.030000 0.070000
v 0.020000 -0.070000 0.030000
v 0.020000 -0.070000 0.070000
v 0.020000 -0.030000 0.030000
v 0.020000 -0.030000 0.070000
usemtl c_ff00ff
f 311 312 314 313
f 315 317 318 316
f 311 315 316 312
f 313 314 318 317
f 311 313 317 315
f 312 316 318 314
o Point_SightRear
v -0.020000 0.900000 -0.380000
v -0.020000 0.900000 -0.340000
v -0.020000 0.940000 -0.380000
v -0.020000 0.940000 -0.340000
v 0.020000 0.900000 -0.380000
v 0.020000 0.900000 -0.340000
v 0.020000 0.940000 -0.380000
v 0.020000 0.940000 -0.340000
usemtl c_ff00ff
f 319 320 322 321
f 323 325 326 324
f 319 323 324 320
f 321 322 326 325
f 319 321 325 323
f 320 324 326 322
o Point_SightFront
v -0.020000 0.900000 -0.580000
v -0.020000 0.900000 -0.540000
v -0.020000 0.940000 -0.580000
v -0.020000 0.940000 -0.540000
v 0.020000 0.900000 -0.580000
v 0.020000 0.900000 -0.540000
v 0.020000 0.940000 -0.580000
v 0.020000 0.940000 -0.540000
usemtl c_ff00ff
f 327 328 330 329
f 331 333 334 332
f 327 331 332 328
f 329 330 334 333
f 327 329 333 331
f 328 332 334 330
o Point_Muzzle
v -0.020000 0.460000 -2.750000
v -0.020000 0.460000 -2.710000
v -0.020000 0.500000 -2.750000
v -0.020000 0.500000 -2.710000
v 0.020000 0.460000 -2.750000
v 0.020000 0.460000 -2.710000
v 0.020000 0.500000 -2.750000
v 0.020000 0.500000 -2.710000
usemtl c_ff00ff
f 335 336 338 337
f 339 341 342 340
f 335 339 340 336
f 337 338 342 341
f 335 337 341 339
f 336 340 342 338
o Point_Eject
v 0.160000 0.450000 -0.320000
v 0.160000 0.450000 -0.280000
v 0.160000 0.490000 -0.320000
v 0.160000 0.490000 -0.280000
v 0.200000 0.450000 -0.320000
v 0.200000 0.450000 -0.280000
v 0.200000 0.490000 -0.320000
v 0.200000 0.490000 -0.280000
usemtl c_ff00ff
f 343 344 346 345
f 347 349 350 348
f 343 347 348 344
f 345 346 350 349
f 343 345 349 347
f 344 348 350 346
o Point_LeftHand
v -0.050000 0.250000 -1.620000
v -0.050000 0.250000 -1.580000
v -0.050000 0.290000 -1.620000
v -0.050000 0.290000 -1.580000
v -0.010000 0.250000 -1.620000
v -0.010000 0.250000 -1.580000
v -0.010000 0.290000 -1.620000
v -0.010000 0.290000 -1.580000
usemtl c_ff00ff
f 351 352 354 353
f 355 357 358 356
f 351 355 356 352
f 353 354 358 357
f 351 353 357 355
f 352 356 358 354
o Point_LeftHandTP
v -0.050000 0.180000 -1.170000
v -0.050000 0.180000 -1.130000
v -0.050000 0.220000 -1.170000
v -0.050000 0.220000 -1.130000
v -0.010000 0.180000 -1.170000
v -0.010000 0.180000 -1.130000
v -0.010000 0.220000 -1.170000
v -0.010000 0.220000 -1.130000
usemtl c_ff00ff
f 359 360 362 361
f 363 365 366 364
f 359 363 364 360
f 361 362 366 365
f 359 361 365 363
f 360 364 366 362
o Point_Stock
v -0.020000 0.330000 1.380000
v -0.020000 0.330000 1.420000
v -0.020000 0.370000 1.380000
v -0.020000 0.370000 1.420000
v 0.020000 0.330000 1.380000
v 0.020000 0.330000 1.420000
v 0.020000 0.370000 1.380000
v 0.020000 0.370000 1.420000
usemtl c_ff00ff
f 367 368 370 369
f 371 373 374 372
f 367 371 372 368
f 369 370 374 373
f 367 369 373 371
f 368 372 374 370
o Pivot_Bolt
v -0.030000 0.570000 0.570000
v -0.030000 0.570000 0.630000
v -0.030000 0.630000 0.570000
v -0.030000 0.630000 0.630000
v 0.030000 0.570000 0.570000
v 0.030000 0.570000 0.630000
v 0.030000 0.630000 0.570000
v 0.030000 0.630000 0.630000
usemtl c_00dcff
f 375 376 378 377
f 379 381 382 380
f 375 379 380 376
f 377 378 382 381
f 375 377 381 379
f 376 380 382 378
o Pivot_Magazine
v -0.030000 -0.110000 -0.680000
v -0.030000 -0.110000 -0.620000
v -0.030000 -0.050000 -0.680000
v -0.030000 -0.050000 -0.620000
v 0.030000 -0.110000 -0.680000
v 0.030000 -0.110000 -0.620000
v 0.030000 -0.050000 -0.680000
v 0.030000 -0.050000 -0.620000
usemtl c_00dcff
f 383 384 386 385
f 387 389 390 388
f 383 387 388 384
f 385 386 390 389
f 383 385 389 387
f 384 388 390 386
