# Vorlage Shotgun – 1 Einheit = 1 Stud, Lauf zeigt nach -Z (Roblox).
# Spezifikation: docs/waffen-modelle.md
mtllib Shotgun.mtl
o Grip
v -0.125000 -0.334117 -0.005404
v -0.125000 -0.241412 0.279913
v -0.125000 0.141412 -0.159913
v -0.125000 0.234117 0.125404
v 0.125000 -0.334117 -0.005404
v 0.125000 -0.241412 0.279913
v 0.125000 0.141412 -0.159913
v 0.125000 0.234117 0.125404
usemtl c_141416
f 1 2 4 3
f 5 7 8 6
f 1 5 6 2
f 3 4 8 7
f 1 3 7 5
f 2 6 8 4
o Skin_Body
v -0.175000 0.180000 -0.900000
v -0.175000 0.180000 0.300000
v -0.175000 0.580000 -0.900000
v -0.175000 0.580000 0.300000
v 0.175000 0.180000 -0.900000
v 0.175000 0.180000 0.300000
v 0.175000 0.580000 -0.900000
v 0.175000 0.580000 0.300000
usemtl c_2d2d32
f 9 10 12 11
f 13 15 16 14
f 9 13 14 10
f 11 12 16 15
f 9 11 15 13
f 10 14 16 12
o Barrel
v -0.100000 0.420000 -2.450000
v -0.100000 0.420000 -0.900000
v -0.100000 0.620000 -2.450000
v -0.100000 0.620000 -0.900000
v 0.100000 0.420000 -2.450000
v 0.100000 0.420000 -0.900000
v 0.100000 0.620000 -2.450000
v 0.100000 0.620000 -0.900000
usemtl c_141416
f 17 18 20 19
f 21 23 24 22
f 17 21 22 18
f 19 20 24 23
f 17 19 23 21
f 18 22 24 20
o Tube
v -0.075000 0.255000 -2.200000
v -0.075000 0.255000 -0.900000
v -0.075000 0.405000 -2.200000
v -0.075000 0.405000 -0.900000
v 0.075000 0.255000 -2.200000
v 0.075000 0.255000 -0.900000
v 0.075000 0.405000 -2.200000
v 0.075000 0.405000 -0.900000
usemtl c_141416
f 25 26 28 27
f 29 31 32 30
f 25 29 30 26
f 27 28 32 31
f 25 27 31 29
f 26 30 32 28
o Pump
v -0.140000 0.200000 -1.650000
v -0.140000 0.200000 -1.050000
v -0.140000 0.440000 -1.650000
v -0.140000 0.440000 -1.050000
v 0.140000 0.200000 -1.650000
v 0.140000 0.200000 -1.050000
v 0.140000 0.440000 -1.650000
v 0.140000 0.440000 -1.050000
usemtl c_6e4b2d
f 33 34 36 35
f 37 39 40 38
f 33 37 38 34
f 35 36 40 39
f 33 35 39 37
f 34 38 40 36
o Skin_Stock
v -0.150000 0.050000 0.500000
v -0.150000 0.050000 1.500000
v -0.150000 0.550000 0.500000
v -0.150000 0.550000 1.500000
v 0.150000 0.050000 0.500000
v 0.150000 0.050000 1.500000
v 0.150000 0.550000 0.500000
v 0.150000 0.550000 1.500000
usemtl c_6e4b2d
f 41 42 44 43
f 45 47 48 46
f 41 45 46 42
f 43 44 48 47
f 41 43 47 45
f 42 46 48 44
o Rib
v -0.030000 0.620000 -2.425000
v -0.030000 0.620000 -0.925000
v -0.030000 0.650000 -2.425000
v -0.030000 0.650000 -0.925000
v 0.030000 0.620000 -2.425000
v 0.030000 0.620000 -0.925000
v 0.030000 0.650000 -2.425000
v 0.030000 0.650000 -0.925000
usemtl c_464950
f 49 50 52 51
f 53 55 56 54
f 49 53 54 50
f 51 52 56 55
f 49 51 55 53
f 50 54 56 52
o RearBase
v -0.080000 0.580000 0.150000
v -0.080000 0.580000 0.210000
v -0.080000 0.630000 0.150000
v -0.080000 0.630000 0.210000
v 0.080000 0.580000 0.150000
v 0.080000 0.580000 0.210000
v 0.080000 0.630000 0.150000
v 0.080000 0.630000 0.210000
usemtl c_141416
f 57 58 60 59
f 61 63 64 62
f 57 61 62 58
f 59 60 64 63
f 57 59 63 61
f 58 62 64 60
o RearL
v -0.080000 0.630000 0.150000
v -0.080000 0.630000 0.210000
v -0.080000 0.740000 0.150000
v -0.080000 0.740000 0.210000
v -0.030000 0.630000 0.150000
v -0.030000 0.630000 0.210000
v -0.030000 0.740000 0.150000
v -0.030000 0.740000 0.210000
usemtl c_141416
f 65 66 68 67
f 69 71 72 70
f 65 69 70 66
f 67 68 72 71
f 65 67 71 69
f 66 70 72 68
o RearR
v 0.030000 0.630000 0.150000
v 0.030000 0.630000 0.210000
v 0.030000 0.740000 0.150000
v 0.030000 0.740000 0.210000
v 0.080000 0.630000 0.150000
v 0.080000 0.630000 0.210000
v 0.080000 0.740000 0.150000
v 0.080000 0.740000 0.210000
usemtl c_141416
f 73 74 76 75
f 77 79 80 78
f 73 77 78 74
f 75 76 80 79
f 73 75 79 77
f 74 78 80 76
o FrontPost
v -0.015000 0.650000 -2.395000
v -0.015000 0.650000 -2.365000
v -0.015000 0.675000 -2.395000
v -0.015000 0.675000 -2.365000
v 0.015000 0.650000 -2.395000
v 0.015000 0.650000 -2.365000
v 0.015000 0.675000 -2.395000
v 0.015000 0.675000 -2.365000
usemtl c_141416
f 81 82 84 83
f 85 87 88 86
f 81 85 86 82
f 83 84 88 87
f 81 83 87 85
f 82 86 88 84
o Neon_FrontDot
v 0.000000 0.745000 -2.380000
v 0.017500 0.740311 -2.380000
v 0.015155 0.740311 -2.371250
v 0.008750 0.740311 -2.364845
v 0.000000 0.740311 -2.362500
v -0.008750 0.740311 -2.364845
v -0.015155 0.740311 -2.371250
v -0.017500 0.740311 -2.380000
v -0.015155 0.740311 -2.388750
v -0.008750 0.740311 -2.395155
v -0.000000 0.740311 -2.397500
v 0.008750 0.740311 -2.395155
v 0.015155 0.740311 -2.388750
v 0.030311 0.727500 -2.380000
v 0.026250 0.727500 -2.364845
v 0.015155 0.727500 -2.353750
v 0.000000 0.727500 -2.349689
v -0.015155 0.727500 -2.353750
v -0.026250 0.727500 -2.364845
v -0.030311 0.727500 -2.380000
v -0.026250 0.727500 -2.395155
v -0.015155 0.727500 -2.406250
v -0.000000 0.727500 -2.410311
v 0.015155 0.727500 -2.406250
v 0.026250 0.727500 -2.395155
v 0.035000 0.710000 -2.380000
v 0.030311 0.710000 -2.362500
v 0.017500 0.710000 -2.349689
v 0.000000 0.710000 -2.345000
v -0.017500 0.710000 -2.349689
v -0.030311 0.710000 -2.362500
v -0.035000 0.710000 -2.380000
v -0.030311 0.710000 -2.397500
v -0.017500 0.710000 -2.410311
v -0.000000 0.710000 -2.415000
v 0.017500 0.710000 -2.410311
v 0.030311 0.710000 -2.397500
v 0.030311 0.692500 -2.380000
v 0.026250 0.692500 -2.364845
v 0.015155 0.692500 -2.353750
v 0.000000 0.692500 -2.349689
v -0.015155 0.692500 -2.353750
v -0.026250 0.692500 -2.364845
v -0.030311 0.692500 -2.380000
v -0.026250 0.692500 -2.395155
v -0.015155 0.692500 -2.406250
v -0.000000 0.692500 -2.410311
v 0.015155 0.692500 -2.406250
v 0.026250 0.692500 -2.395155
v 0.017500 0.679689 -2.380000
v 0.015155 0.679689 -2.371250
v 0.008750 0.679689 -2.364845
v 0.000000 0.679689 -2.362500
v -0.008750 0.679689 -2.364845
v -0.015155 0.679689 -2.371250
v -0.017500 0.679689 -2.380000
v -0.015155 0.679689 -2.388750
v -0.008750 0.679689 -2.395155
v -0.000000 0.679689 -2.397500
v 0.008750 0.679689 -2.395155
v 0.015155 0.679689 -2.388750
v 0.000000 0.675000 -2.380000
usemtl c_ff7828
f 91 90 89
f 92 91 89
f 93 92 89
f 94 93 89
f 95 94 89
f 96 95 89
f 97 96 89
f 98 97 89
f 99 98 89
f 100 99 89
f 101 100 89
f 90 101 89
f 91 103 102 90
f 92 104 103 91
f 93 105 104 92
f 94 106 105 93
f 95 107 106 94
f 96 108 107 95
f 97 109 108 96
f 98 110 109 97
f 99 111 110 98
f 100 112 111 99
f 101 113 112 100
f 90 102 113 101
f 103 115 114 102
f 104 116 115 103
f 105 117 116 104
f 106 118 117 105
f 107 119 118 106
f 108 120 119 107
f 109 121 120 108
f 110 122 121 109
f 111 123 122 110
f 112 124 123 111
f 113 125 124 112
f 102 114 125 113
f 115 127 126 114
f 116 128 127 115
f 117 129 128 116
f 118 130 129 117
f 119 131 130 118
f 120 132 131 119
f 121 133 132 120
f 122 134 133 121
f 123 135 134 122
f 124 136 135 123
f 125 137 136 124
f 114 126 137 125
f 127 139 138 126
f 128 140 139 127
f 129 141 140 128
f 130 142 141 129
f 131 143 142 130
f 132 144 143 131
f 133 145 144 132
f 134 146 145 133
f 135 147 146 134
f 136 148 147 135
f 137 149 148 136
f 126 138 149 137
f 139 150 138
f 140 150 139
f 141 150 140
f 142 150 141
f 143 150 142
f 144 150 143
f 145 150 144
f 146 150 145
f 147 150 146
f 148 150 147
f 149 150 148
f 138 150 149
o Shell
v 0.000000 0.125000 -0.340000
v 0.017221 0.121575 -0.340000
v 0.031820 0.111820 -0.340000
v 0.041575 0.097221 -0.340000
v 0.045000 0.080000 -0.340000
v 0.041575 0.062779 -0.340000
v 0.031820 0.048180 -0.340000
v 0.017221 0.038425 -0.340000
v 0.000000 0.035000 -0.340000
v -0.017221 0.038425 -0.340000
v -0.031820 0.048180 -0.340000
v -0.041575 0.062779 -0.340000
v -0.045000 0.080000 -0.340000
v -0.041575 0.097221 -0.340000
v -0.031820 0.111820 -0.340000
v -0.017221 0.121575 -0.340000
v 0.000000 0.125000 -0.560000
v 0.017221 0.121575 -0.560000
v 0.031820 0.111820 -0.560000
v 0.041575 0.097221 -0.560000
v 0.045000 0.080000 -0.560000
v 0.041575 0.062779 -0.560000
v 0.031820 0.048180 -0.560000
v 0.017221 0.038425 -0.560000
v 0.000000 0.035000 -0.560000
v -0.017221 0.038425 -0.560000
v -0.031820 0.048180 -0.560000
v -0.041575 0.062779 -0.560000
v -0.045000 0.080000 -0.560000
v -0.041575 0.097221 -0.560000
v -0.031820 0.111820 -0.560000
v -0.017221 0.121575 -0.560000
usemtl c_aa2823
f 151 152 168 167
f 152 153 169 168
f 153 154 170 169
f 154 155 171 170
f 155 156 172 171
f 156 157 173 172
f 157 158 174 173
f 158 159 175 174
f 159 160 176 175
f 160 161 177 176
f 161 162 178 177
f 162 163 179 178
f 163 164 180 179
f 164 165 181 180
f 165 166 182 181
f 166 151 167 182
f 166 165 164 163 162 161 160 159 158 157 156 155 154 153 152 151
f 167 168 169 170 171 172 173 174 175 176 177 178 179 180 181 182
o Point_Grip
v -0.020000 -0.070000 0.040000
v -0.020000 -0.070000 0.080000
v -0.020000 -0.030000 0.040000
v -0.020000 -0.030000 0.080000
v 0.020000 -0.070000 0.040000
v 0.020000 -0.070000 0.080000
v 0.020000 -0.030000 0.040000
v 0.020000 -0.030000 0.080000
usemtl c_ff00ff
f 183 184 186 185
f 187 189 190 188
f 183 187 188 184
f 185 186 190 189
f 183 185 189 187
f 184 188 190 186
o Point_SightRear
v -0.020000 0.690000 0.160000
v -0.020000 0.690000 0.200000
v -0.020000 0.730000 0.160000
v -0.020000 0.730000 0.200000
v 0.020000 0.690000 0.160000
v 0.020000 0.690000 0.200000
v 0.020000 0.730000 0.160000
v 0.020000 0.730000 0.200000
usemtl c_ff00ff
f 191 192 194 193
f 195 197 198 196
f 191 195 196 192
f 193 194 198 197
f 191 193 197 195
f 192 196 198 194
o Point_SightFront
v -0.020000 0.690000 -2.400000
v -0.020000 0.690000 -2.360000
v -0.020000 0.730000 -2.400000
v -0.020000 0.730000 -2.360000
v 0.020000 0.690000 -2.400000
v 0.020000 0.690000 -2.360000
v 0.020000 0.730000 -2.400000
v 0.020000 0.730000 -2.360000
usemtl c_ff00ff
f 199 200 202 201
f 203 205 206 204
f 199 203 204 200
f 201 202 206 205
f 199 201 205 203
f 200 204 206 202
o Point_Muzzle
v -0.020000 0.500000 -2.470000
v -0.020000 0.500000 -2.430000
v -0.020000 0.540000 -2.470000
v -0.020000 0.540000 -2.430000
v 0.020000 0.500000 -2.470000
v 0.020000 0.500000 -2.430000
v 0.020000 0.540000 -2.470000
v 0.020000 0.540000 -2.430000
usemtl c_ff00ff
f 207 208 210 209
f 211 213 214 212
f 207 211 212 208
f 209 210 214 213
f 207 209 213 211
f 208 212 214 210
o Point_Eject
v 0.160000 0.400000 -0.370000
v 0.160000 0.400000 -0.330000
v 0.160000 0.440000 -0.370000
v 0.160000 0.440000 -0.330000
v 0.200000 0.400000 -0.370000
v 0.200000 0.400000 -0.330000
v 0.200000 0.440000 -0.370000
v 0.200000 0.440000 -0.330000
usemtl c_ff00ff
f 215 216 218 217
f 219 221 222 220
f 215 219 220 216
f 217 218 222 221
f 215 217 221 219
f 216 220 222 218
o Point_LeftHand
v -0.040000 0.180000 -1.370000
v -0.040000 0.180000 -1.330000
v -0.040000 0.220000 -1.370000
v -0.040000 0.220000 -1.330000
v 0.000000 0.180000 -1.370000
v 0.000000 0.180000 -1.330000
v 0.000000 0.220000 -1.370000
v 0.000000 0.220000 -1.330000
usemtl c_ff00ff
f 223 224 226 225
f 227 229 230 228
f 223 227 228 224
f 225 226 230 229
f 223 225 229 227
f 224 228 230 226
o Point_Stock
v -0.020000 0.280000 1.480000
v -0.020000 0.280000 1.520000
v -0.020000 0.320000 1.480000
v -0.020000 0.320000 1.520000
v 0.020000 0.280000 1.480000
v 0.020000 0.280000 1.520000
v 0.020000 0.320000 1.480000
v 0.020000 0.320000 1.520000
usemtl c_ff00ff
f 231 232 234 233
f 235 237 238 236
f 231 235 236 232
f 233 234 238 237
f 231 233 237 235
f 232 236 238 234
o Pivot_Shell
v -0.030000 0.050000 -0.480000
v -0.030000 0.050000 -0.420000
v -0.030000 0.110000 -0.480000
v -0.030000 0.110000 -0.420000
v 0.030000 0.050000 -0.480000
v 0.030000 0.050000 -0.420000
v 0.030000 0.110000 -0.480000
v 0.030000 0.110000 -0.420000
usemtl c_00dcff
f 239 240 242 241
f 243 245 246 244
f 239 243 244 240
f 241 242 246 245
f 239 241 245 243
f 240 244 246 242
o Pivot_Pump
v -0.030000 0.290000 -1.380000
v -0.030000 0.290000 -1.320000
v -0.030000 0.350000 -1.380000
v -0.030000 0.350000 -1.320000
v 0.030000 0.290000 -1.380000
v 0.030000 0.290000 -1.320000
v 0.030000 0.350000 -1.380000
v 0.030000 0.350000 -1.320000
usemtl c_00dcff
f 247 248 250 249
f 251 253 254 252
f 247 251 252 248
f 249 250 254 253
f 247 249 253 251
f 248 252 254 250
