# Vorlage Ammo_Rifle (Gewehrmunition: Munitionskiste aus Metall, oliv) - 1 Einheit = 1 Stud, oben +Y, vorne -Z (Roblox), Boden y = 0.
# Ref_Ammo_Rifle = Zielgröße (vor dem Export löschen), Point_Grip = rechte Hand. Spezifikation: docs/3d-richtlinien.md
mtllib Ammo_Rifle.mtl
o Ref_Ammo_Rifle
v -0.650000 0.000000 -0.300000
v -0.650000 0.000000 0.300000
v -0.650000 0.900000 -0.300000
v -0.650000 0.900000 0.300000
v 0.650000 0.000000 -0.300000
v 0.650000 0.000000 0.300000
v 0.650000 0.900000 -0.300000
v 0.650000 0.900000 0.300000
usemtl c_969ca6_35
f 1 2 4 3
f 5 7 8 6
f 1 5 6 2
f 3 4 8 7
f 1 3 7 5
f 2 6 8 4
o Point_Grip
v -0.025000 0.875000 -0.025000
v -0.025000 0.875000 0.025000
v -0.025000 0.925000 -0.025000
v -0.025000 0.925000 0.025000
v 0.025000 0.875000 -0.025000
v 0.025000 0.875000 0.025000
v 0.025000 0.925000 -0.025000
v 0.025000 0.925000 0.025000
usemtl c_ff00ff_100
f 9 10 12 11
f 13 15 16 14
f 9 13 14 10
f 11 12 16 15
f 9 11 15 13
f 10 14 16 12
