# Vorlage AntiZombie (Anti-Zombie-Spritze: grünes Serum, Nadel nach +X) - 1 Einheit = 1 Stud, oben +Y, vorne -Z (Roblox), Boden y = 0.
# Ref_AntiZombie = Zielgröße (vor dem Export löschen), Point_Grip = rechte Hand. Spezifikation: docs/3d-richtlinien.md
mtllib AntiZombie.mtl
o Ref_AntiZombie
v -0.600000 0.260000 0.000000
v -0.600000 0.250104 0.049749
v -0.600000 0.221924 0.091924
v -0.600000 0.179749 0.120104
v -0.600000 0.130000 0.130000
v -0.600000 0.080251 0.120104
v -0.600000 0.038076 0.091924
v -0.600000 0.009896 0.049749
v -0.600000 0.000000 0.000000
v -0.600000 0.009896 -0.049749
v -0.600000 0.038076 -0.091924
v -0.600000 0.080251 -0.120104
v -0.600000 0.130000 -0.130000
v -0.600000 0.179749 -0.120104
v -0.600000 0.221924 -0.091924
v -0.600000 0.250104 -0.049749
v 0.600000 0.260000 0.000000
v 0.600000 0.250104 0.049749
v 0.600000 0.221924 0.091924
v 0.600000 0.179749 0.120104
v 0.600000 0.130000 0.130000
v 0.600000 0.080251 0.120104
v 0.600000 0.038076 0.091924
v 0.600000 0.009896 0.049749
v 0.600000 0.000000 0.000000
v 0.600000 0.009896 -0.049749
v 0.600000 0.038076 -0.091924
v 0.600000 0.080251 -0.120104
v 0.600000 0.130000 -0.130000
v 0.600000 0.179749 -0.120104
v 0.600000 0.221924 -0.091924
v 0.600000 0.250104 -0.049749
usemtl c_969ca6_35
f 1 2 18 17
f 2 3 19 18
f 3 4 20 19
f 4 5 21 20
f 5 6 22 21
f 6 7 23 22
f 7 8 24 23
f 8 9 25 24
f 9 10 26 25
f 10 11 27 26
f 11 12 28 27
f 12 13 29 28
f 13 14 30 29
f 14 15 31 30
f 15 16 32 31
f 16 1 17 32
f 16 15 14 13 12 11 10 9 8 7 6 5 4 3 2 1
f 17 18 19 20 21 22 23 24 25 26 27 28 29 30 31 32
o Point_Grip
v 0.225000 0.105000 -0.025000
v 0.225000 0.105000 0.025000
v 0.225000 0.155000 -0.025000
v 0.225000 0.155000 0.025000
v 0.275000 0.105000 -0.025000
v 0.275000 0.105000 0.025000
v 0.275000 0.155000 -0.025000
v 0.275000 0.155000 0.025000
usemtl c_ff00ff_100
f 33 34 36 35
f 37 39 40 38
f 33 37 38 34
f 35 36 40 39
f 33 35 39 37
f 34 38 40 36
