# Vorlage Crate_Military (Militärkiste) - 1 Einheit = 1 Stud, oben +Y, vorne -Z (Roblox), Boden y = 0.
# Ref_Crate_Military = Zielgröße (vor dem Export löschen), Point_Grip = rechte Hand. Spezifikation: docs/3d-richtlinien.md
mtllib Crate_Military.mtl
o Ref_Crate_Military
v -2.000000 0.000000 -1.300000
v -2.000000 0.000000 1.300000
v -2.000000 2.600000 -1.300000
v -2.000000 2.600000 1.300000
v 2.000000 0.000000 -1.300000
v 2.000000 0.000000 1.300000
v 2.000000 2.600000 -1.300000
v 2.000000 2.600000 1.300000
usemtl c_969ca6_35
f 1 2 4 3
f 5 7 8 6
f 1 5 6 2
f 3 4 8 7
f 1 3 7 5
f 2 6 8 4
