# Vorlage Crate_Wood (Holzkiste) - 1 Einheit = 1 Stud, oben +Y, vorne -Z (Roblox), Boden y = 0.
# Ref_Crate_Wood = Zielgröße (vor dem Export löschen), Point_Grip = rechte Hand. Spezifikation: docs/3d-richtlinien.md
mtllib Crate_Wood.mtl
o Ref_Crate_Wood
v -1.700000 0.000000 -1.200000
v -1.700000 0.000000 1.200000
v -1.700000 2.400000 -1.200000
v -1.700000 2.400000 1.200000
v 1.700000 0.000000 -1.200000
v 1.700000 0.000000 1.200000
v 1.700000 2.400000 -1.200000
v 1.700000 2.400000 1.200000
usemtl c_969ca6_35
f 1 2 4 3
f 5 7 8 6
f 1 5 6 2
f 3 4 8 7
f 1 3 7 5
f 2 6 8 4
